<?xml version="1.0" encoding="utf-8"?>
<!-- Generator: Adobe Illustrator 19.1.0, SVG Export Plug-In . SVG Version: 6.00 Build 0)  -->
<svg version="1.1" id="Layer_1" xmlns="http://www.w3.org/2000/svg" xmlns:xlink="http://www.w3.org/1999/xlink" x="0px" y="0px"
	 viewBox="0 0 380 242.5" style="enable-background:new 0 0 380 242.5;" xml:space="preserve">
<style type="text/css">
	.st0{fill:#FFFFFF;}
</style>
<path class="st0" d="M104.5,105.7c-7.4-9.5-21-7.5-28.5,4.1c-6.5,10-7.9,20.3-4.5,30.3c1.8,5.4,5,9.8,10.7,11.6
	c6.6,2.1,15.9-1.4,20.4-7.7c4.9-6.8,7.1-14,7.2-19.7C110,116,108.1,110.3,104.5,105.7z M85.8,148.2c-0.2,0-0.4,0-0.7-0.1
	c-0.3,0-0.6-0.1-0.9-0.2c-0.3-0.1-0.7-0.2-1.1-0.3c-0.4-0.2-0.8-0.3-1.2-0.6c-0.8-0.5-1.7-1.1-2.6-1.9c-0.8-0.8-1.7-1.8-2.4-3
	c-0.7-1.1-1.4-2.4-1.9-3.9c-0.3-0.7-0.5-1.4-0.7-2.2c-0.1-0.4-0.2-0.7-0.3-1.1c-0.1-0.4-0.2-0.8-0.2-1.2c-0.3-1.6-0.4-3.3-0.4-5
	c0-1.7,0.1-3.4,0.4-5.1c0.3-1.7,0.7-3.4,1.3-5c0.5-1.6,1.2-3.1,2-4.5c0.2-0.4,0.4-0.7,0.6-1c0.2-0.3,0.4-0.7,0.6-1
	c0.4-0.6,0.8-1.2,1.3-1.7c0.9-1.1,1.7-2,2.6-2.8c0.8-0.7,1.6-1.3,2.3-1.7c0.7-0.4,1.2-0.7,1.6-0.8c0.3-0.1,0.5-0.2,0.6-0.2
	c0,0-0.2,0.1-0.5,0.3c-0.4,0.2-0.8,0.6-1.4,1.1c-0.6,0.5-1.3,1.1-2,1.9c-0.7,0.8-1.4,1.7-2.1,2.8c-0.3,0.5-0.7,1.1-1,1.7
	c-0.2,0.3-0.3,0.6-0.5,0.9c-0.2,0.3-0.3,0.7-0.5,1c-0.6,1.3-1.1,2.8-1.6,4.3c-0.4,1.5-0.8,3-1,4.6c-0.2,1.6-0.3,3.2-0.3,4.8
	c0,1.6,0.1,3.2,0.3,4.7c0.1,0.4,0.1,0.7,0.2,1.1c0.1,0.4,0.2,0.8,0.2,1.1c0.2,0.7,0.4,1.4,0.6,2.1c0.4,1.4,0.9,2.6,1.5,3.8
	c0.6,1.1,1.2,2.1,1.9,3c0.7,0.8,1.4,1.5,2.1,2.1c0.4,0.3,0.7,0.5,1,0.7c0.3,0.2,0.7,0.4,1,0.5c0.3,0.1,0.6,0.2,0.8,0.3
	c0.2,0.1,0.5,0.1,0.6,0.2c0.3,0.1,0.5,0.1,0.5,0.2C86.3,148.3,86.1,148.3,85.8,148.2z M87,143.4c-3.1-0.8-4.9-3-5.8-6
	c-1.8-6.5-1.7-13.3,0.5-20.5c0.5-1.8,1.4-3.4,2.5-5c3.4-4.4,8-5.1,11.1-1.6c3.2,3.8,4.2,8.7,4.4,13.4c0,4.6-0.6,8.5-2.2,12.5
	C95.6,141.2,91,144.4,87,143.4z M105.4,129.3c-0.1,0.4-0.2,0.8-0.3,1.2c-0.2,0.9-0.4,1.7-0.7,2.5c-0.5,1.6-1.2,3.1-1.9,4.6
	c-0.7,1.4-1.5,2.7-2.4,3.8c-0.9,1.1-1.7,2.1-2.6,2.8c-0.4,0.4-0.8,0.7-1.2,1c-0.4,0.3-0.8,0.5-1.1,0.7c-0.3,0.2-0.7,0.4-0.9,0.5
	c-0.3,0.1-0.5,0.2-0.7,0.3c-0.3,0.1-0.5,0.2-0.6,0.3c0,0,0.2-0.2,0.5-0.4c0.2-0.1,0.4-0.3,0.6-0.4c0.2-0.2,0.5-0.4,0.8-0.6
	c0.3-0.2,0.6-0.6,1-0.9c0.3-0.3,0.7-0.7,1-1.1c0.7-0.8,1.4-1.8,2.1-2.9c0.7-1.1,1.3-2.4,1.9-3.7c0.6-1.4,1.1-2.8,1.5-4.3
	c0.2-0.8,0.4-1.5,0.6-2.3c0.1-0.4,0.2-0.8,0.2-1.2c0.1-0.4,0.1-0.8,0.2-1.2c0.2-1.6,0.3-3.2,0.3-4.8c0-1.6-0.1-3.2-0.3-4.7
	c-0.2-1.5-0.6-2.9-1-4.3c-0.4-1.3-1-2.6-1.6-3.7c-0.1-0.3-0.3-0.6-0.5-0.8c-0.2-0.3-0.3-0.5-0.5-0.7c-0.3-0.5-0.7-0.9-1-1.4
	c-0.7-0.8-1.4-1.5-2.2-2c-0.7-0.5-1.4-0.9-2-1.2c-0.6-0.3-1.1-0.4-1.4-0.5c-0.3-0.1-0.5-0.1-0.5-0.2c0,0,0.2,0,0.6,0
	c0.4,0,0.9,0.1,1.6,0.2c0.7,0.2,1.5,0.4,2.3,0.9c0.8,0.4,1.7,1,2.6,1.8c0.4,0.4,0.9,0.8,1.3,1.3c0.2,0.2,0.4,0.5,0.6,0.7
	c0.2,0.3,0.4,0.5,0.6,0.8c0.8,1.1,1.4,2.4,2,3.8c0.5,1.4,1,2.9,1.3,4.5c0.3,1.6,0.4,3.3,0.4,5c0,1.7-0.2,3.4-0.4,5.1
	C105.5,128.4,105.5,128.9,105.4,129.3z"/>
<path class="st0" d="M64.4,83.8C60.1,74.1,53.3,67.4,42,65.6c-3.9-0.6-7.9-0.4-11.9,0.4c-9.5,1.7-17.1,6.2-22.4,14.3
	c-2.1,3.2-3,7-5.3,10c-1.1,1.4,0.1,2.3,1.3,2.8c2.9,1.2,5.9,2.1,8.9,2.6c1.8,0.3,2.7-0.2,2.7-2.2c0-3,1-5.7,3.1-8
	c0.5-0.5,0.9-1.4,1.7-1.2c0.8,0.3,0.6,1.2,0.6,1.9c0,5.7-0.4,11.5,0,17.2c0.2,2.1-0.6,3.2-2.5,4c-6.7,2.9-10.9,8.2-13.7,14.5
	c-2.7,5.9-2.3,12.2-1.2,18.4c2.4,13.7,15,21.9,26.6,19.3c17.1-3.8,28.2-15.1,34.3-31.5c2.9-7.8,3.8-15.9,3.8-26.8
	C67.9,97.1,67.2,90.1,64.4,83.8z M62.5,115c-0.4,3.6-1.1,7.2-2.2,10.8c-1.2,3.6-2.7,7.1-4.8,10.4c-2,3.3-4.5,6.3-7.3,9
	c-1.4,1.3-2.9,2.5-4.4,3.6c-1.5,1.1-3.1,2.1-4.8,3c-3.3,1.8-6.7,3.1-10.2,3.8c-0.4,0.1-0.9,0.1-1.4,0.2c-0.2,0-0.4,0-0.7,0.1
	c-0.1,0-0.2,0-0.3,0c-0.1,0-0.1,0-0.2,0c-0.1,0-0.1,0-0.2,0c-0.4,0-0.9,0-1.3,0c-0.4,0-0.9-0.1-1.3-0.1c-1.8-0.2-3.5-0.7-5-1.4
	c-1.6-0.7-3-1.7-4.2-2.9c-0.6-0.6-1.2-1.2-1.7-1.9c-0.2-0.3-0.5-0.7-0.7-1c-0.2-0.4-0.4-0.7-0.6-1.1c-0.8-1.4-1.4-3-1.9-4.5
	c-0.4-1.6-0.7-3.1-0.9-4.7c0-0.4-0.1-0.8-0.1-1.2c0-0.4,0-0.8,0-1.1c0-0.4,0-0.7,0-1.1c0-0.1,0-0.2,0-0.3c0,0,0-0.1,0-0.1
	c0,0,0,0,0-0.1c0,0,0-0.1,0-0.1c0-0.2,0-0.4,0-0.6c0-0.8,0.1-1.5,0.1-2.2c0.1-0.7,0.2-1.5,0.2-2.2c0.4-2.9,1.1-5.7,2.3-8.2
	c1.1-2.5,2.8-4.7,4.7-6.4c1.9-1.7,4.1-2.8,6.3-3.4c1.1-0.3,2.2-0.5,3.2-0.7c0.2,0,0.3,0,0.5,0c0-0.3,0-0.7,0-1
	c0.1-3.7,0.2-7.3,0.2-10.7c0-1.7,0.1-3.4,0.1-4.9c0-1.6,0.1-3.1,0.1-4.4c0.2-5.5,0.3-9.1,0.3-9.1c0.1,0,0.1,0,0.2,0
	c0,0,0.1,3.6,0.3,9.1c0,1.4,0.1,2.9,0.1,4.4c0,1.6,0.1,3.2,0.1,4.9c0.1,3.4,0.2,7.1,0.2,10.7c0,0.3,0,0.7,0,1c0.2,0,0.5,0,0.7,0
	c1.9,0,3.6,0.3,5.1,0.6c1.5,0.3,2.8,0.8,3.9,1.3c1.1,0.5,1.9,0.9,2.6,1.3c0.7,0.4,1.2,0.8,1.5,1c0.2,0.2,0.3,0.3,0.4,0.3
	c-0.1-0.1-0.2-0.2-0.4-0.3c-0.3-0.2-0.9-0.6-1.6-0.9c-0.7-0.4-1.6-0.8-2.7-1.2c-1.1-0.4-2.4-0.8-3.9-1.1c-1.5-0.3-3.2-0.5-5-0.5
	c-0.2,0-0.4,0-0.6,0c0,1.3,0.1,2.5,0.1,3.8c0.1,1.8,0.1,3.6,0.1,5.3c0,1.7,0,3.4-0.1,4.9c0,0.8-0.1,1.6-0.1,2.3
	c0,0.7-0.1,1.5-0.1,2.1c-0.1,1.4-0.2,2.6-0.2,3.8c-0.1,1.1-0.2,2.1-0.2,2.9c-0.2,1.6-0.3,2.5-0.3,2.5c-0.1,0-0.1,0-0.2,0
	c0,0-0.1-0.9-0.3-2.5c-0.1-0.8-0.2-1.8-0.2-2.9c-0.1-1.1-0.2-2.4-0.2-3.7c0-0.7-0.1-1.4-0.1-2.1c0-0.7,0-1.5-0.1-2.3
	c-0.1-1.6-0.1-3.2-0.1-4.9c0-1.7,0.1-3.5,0.1-5.3c0-1.2,0.1-2.5,0.1-3.8c-0.1,0-0.3,0-0.4,0c-1,0.2-2,0.4-3,0.7
	c-2,0.7-4.1,1.8-5.8,3.4c-1.8,1.6-3.2,3.7-4.2,6.1c-1,2.4-1.6,5.1-2,7.9c-0.1,0.7-0.1,1.4-0.2,2.1c0,0.7,0,1.4-0.1,2.2
	c0,0.2,0,0.4,0,0.5c0,0.2,0,0.4,0,0.5c0,0.4,0,0.7,0.1,1.1c0,0.4,0,0.8,0.1,1.1c0,0.4,0.1,0.7,0.1,1.1c0.3,2.9,1.1,5.9,2.7,8.5
	c0.2,0.3,0.4,0.6,0.6,1c0.2,0.3,0.5,0.6,0.7,0.9c0.4,0.6,1,1.1,1.5,1.7c1.1,1,2.4,1.9,3.8,2.5c1.4,0.6,2.9,1,4.5,1.2
	c0.4,0,0.8,0.1,1.2,0.1c0.4,0,0.8,0,1.2,0c0,0,0.1,0,0.1,0c0,0,0.1,0,0.1,0c0.1,0,0.2,0,0.3,0c0.2,0,0.4,0,0.6-0.1
	c0.4-0.1,0.8-0.1,1.2-0.2c3.3-0.7,6.5-2,9.6-3.6c1.5-0.8,3-1.8,4.5-2.8c1.4-1.1,2.8-2.2,4.2-3.5c2.6-2.5,5-5.3,6.9-8.5
	c1.9-3.1,3.4-6.4,4.6-9.8c1.1-3.4,1.8-6.9,2.2-10.4c0.2-1.7,0.3-3.5,0.3-5.2c0-0.4,0-0.8,0-1.3c0-0.4,0-0.9,0-1.3
	c0-0.9,0-1.7-0.1-2.6c-0.1-3.3-0.5-6.6-1.1-9.7c-0.6-3.1-1.6-6.1-2.8-8.8c-0.3-0.7-0.6-1.4-1-2c-0.2-0.3-0.3-0.7-0.5-1
	c-0.2-0.3-0.4-0.6-0.6-0.9c-0.2-0.3-0.4-0.6-0.6-0.9c-0.2-0.3-0.4-0.6-0.6-0.9c-0.2-0.3-0.4-0.6-0.7-0.8c-0.1-0.1-0.2-0.3-0.3-0.4
	c-0.1-0.1-0.2-0.3-0.4-0.4c-3.7-4.2-8.7-6.8-13.7-7.7c-1.3-0.2-2.5-0.3-3.7-0.3c-0.3,0-0.6,0-0.9,0c-0.3,0-0.6,0.1-0.9,0.1
	c-0.6,0-1.2,0.1-1.8,0.2c-2.4,0.3-4.6,0.9-6.6,1.8c-0.5,0.2-1,0.4-1.4,0.7c-0.5,0.3-0.9,0.5-1.4,0.8c-0.4,0.3-0.8,0.6-1.2,0.8
	c-0.2,0.1-0.4,0.3-0.6,0.4c-0.2,0.2-0.4,0.3-0.6,0.4c-0.2,0.1-0.4,0.3-0.5,0.4c-0.2,0.1-0.3,0.3-0.5,0.5c-0.3,0.3-0.6,0.6-1,0.9
	c-0.3,0.3-0.6,0.6-0.9,0.9c-0.3,0.3-0.6,0.6-0.8,0.9c-0.5,0.6-0.9,1.2-1.3,1.8c-0.4,0.6-0.8,1.1-1.1,1.6c-0.3,0.5-0.6,1-0.9,1.5
	c-0.2,0.5-0.5,0.9-0.7,1.2c-0.6,1.3-1,2.1-1.1,2.3c0.1-0.2,0.4-1,1-2.3c0.2-0.4,0.4-0.8,0.6-1.3c0.2-0.5,0.5-1,0.8-1.5
	c0.3-0.5,0.7-1.1,1-1.7c0.4-0.6,0.8-1.2,1.3-1.8c0.2-0.3,0.5-0.6,0.8-1c0.3-0.3,0.5-0.7,0.8-1c0.3-0.3,0.6-0.6,1-1
	c0.2-0.2,0.3-0.3,0.5-0.5c0.2-0.2,0.4-0.3,0.5-0.5c0.2-0.2,0.4-0.3,0.6-0.5c0.2-0.2,0.4-0.3,0.6-0.5c0.4-0.3,0.8-0.6,1.3-0.9
	c0.4-0.3,0.9-0.5,1.4-0.8c0.5-0.3,1-0.5,1.5-0.8c2-1,4.3-1.7,6.8-2.1c0.6-0.1,1.3-0.2,1.9-0.3c0.3,0,0.6-0.1,0.9-0.1
	c0.3,0,0.7,0,1-0.1c1.3,0,2.7,0,4,0.2c2.7,0.4,5.3,1.3,7.8,2.6c1.2,0.7,2.5,1.4,3.6,2.3c1.1,0.9,2.2,1.8,3.2,2.9
	c4,4.3,6.7,10.2,8.1,16.6c0.7,3.2,1.1,6.6,1.3,10C62.9,107.9,62.9,111.4,62.5,115z M19.8,143.7c-0.3,1.1,0.2,1.6,1.2,1.5
	c3.1-0.5,6.2-0.8,9.3-1c1.2-0.1,1.3-0.9,1.2-1.9c-1.1-7.9-0.3-15.9-0.4-23.9c0-1.6,0.9-1.9,2.2-1.4c2.6,1,5,2.3,5.8,5.3
	c0.4,1.5,1.3,1.5,2.4,0.5c2.6-2.6,5.2-5.2,7.8-7.8c0.6-0.6,0.9-1.4,0.1-1.9c-3.5-2-5.9-5.3-10-6.6c-1.9-0.6-3.8-1.5-5.9-1.7
	c-1.4-0.1-1.9-0.7-1.9-2.2c0.1-8.2-0.3-16.4-0.7-24.5c-0.1-1.5,0.6-2,1.9-2c5.8,0.1,10.8,1.6,14.5,6.1c7.1,8.6,8.9,19,8.1,30.6
	c-0.6,8.5-3.5,16.4-8.1,23.9c-3.4,5.5-8.2,9.7-14,11.5c-9.7,3-17.1-1-18.9-11.7c-0.9-5.3,0.4-10.6,3.9-15.1c0.4-0.5,0.8-0.9,1.3-1.3
	c0.2-0.2,0.5-0.3,0.9-0.5c0.2,1.8,0.5,3.4,0.4,5.1C20.6,130.9,21.4,137.3,19.8,143.7z"/>
<path class="st0" d="M164,85.6c-2.8,0.7-5.7,1.5-8.5,2.2c-1.5,0.4-2.3,1-1.6,2.5c0.4,0.9,0.4,1.9,0.2,2.9c-1.2,7.4-3.1,14.8-5,22.2
	c-0.6,2.3-1,4.7-2.3,7.3c-1.5-3.9-3-7.5-4.4-11.1c-0.6-1.5-1.8-2.9-1.6-4.5c0.2-2.9-1.2-2.6-3.2-1.9c-1,0.3-2,0.5-3,0.7
	c-1.2,0.3-1.8,0.9-1.6,2.1c0.2,1.3-0.3,2.7-0.7,4c-1.5,4.6-3,9.2-4.5,13.8c-0.2,0.5-0.3,1-0.9,1.5c-0.1-0.2-0.3-0.4-0.4-0.6
	c-2.4-8.4-5-16.6-6.7-25.3c-0.2-1-0.1-2.1,0.4-3.3c0.6-1.3,0.3-1.9-1.1-1.6c-3.3,0.7-6.5,1.4-9.8,2.1c-1.4,0.3-1.7,1.1-0.8,2
	c1,0.9,1.5,2.2,1.9,3.5c1,3.6,1.9,7.2,2.9,10.8c2.2,8.1,4.4,16.2,6.6,24.3c0.4,1.5,0.7,3,0.5,4.6c-0.3,1.5,0.4,1.7,1.8,1.6
	c2.4-0.3,4.8-1.4,7.2-1.5c2.6-0.2,3.1-0.8,3-3.5c0-0.4,0-0.9,0.1-1.3c1.3-4.8,2.6-9.7,4.6-14.6c1.8,4.7,4.2,9,4.7,14.4
	c0.1,1.1,0.4,1.6,1.6,1.4c2.9-0.4,5.8-1.1,8.7-2.1c0.9-0.3,1.3-0.7,1.2-1.7c-0.3-2.9,0.5-5.9,1.3-8.9c3-11.2,5.7-22.4,8.3-33.6
	c0.5-2.2,0.7-4.4,2.1-6.4C166.2,85.6,165.6,85.2,164,85.6z M147.8,133.1c0.8-3.3,1.7-6.7,2.6-10c0.9-3.7,1.9-7.3,2.9-11
	c0.5-1.8,1-3.7,1.5-5.5c0.5-1.8,1-3.7,1.5-5.5c0.5-1.8,1-3.7,1.6-5.5c0.5-1.8,1-3.7,1.6-5.5c0.1,0,0.1,0,0.2,0
	c-0.4,1.8-0.7,3.7-1.1,5.5c-0.4,1.8-0.7,3.7-1.2,5.5c-0.4,1.8-0.8,3.7-1.2,5.5c-0.4,1.8-0.8,3.7-1.2,5.5c-0.8,3.7-1.7,7.3-2.5,11
	c-0.9,3.7-1.7,7.3-2.6,11c-0.1,0.3-0.2,0.6-0.2,0.9c-0.3,0.1-0.6,0.1-0.9,0.2c-0.6,0.1-1.2,0.2-1.8,0.4c-0.2,0.1-0.5,0.1-0.7,0.2
	c-0.1-0.2-0.2-0.4-0.3-0.6l-8.8-21.4c-3,8.2-6,16.4-9,24.7c-0.1,0.1-0.1,0.3-0.2,0.4c-0.1,0-0.3,0.1-0.4,0.1
	c-0.7,0.2-1.4,0.3-2.1,0.5c-0.2,0-0.3,0.1-0.5,0.1c0-0.1-0.1-0.3-0.1-0.4c-0.9-3.2-1.8-6.4-2.7-9.6c-0.9-3.2-1.8-6.4-2.7-9.6
	c-1.8-6.4-3.5-12.8-5.3-19.2c0.1,0,0.1-0.1,0.2-0.1c1.9,6.3,3.9,12.7,5.8,19c1,3.2,1.9,6.3,2.9,9.5c0.9,3,1.8,6,2.8,9
	c0.4-0.1,0.8-0.2,1.2-0.3c2.9-8.3,5.7-16.6,8.6-24.9c0.1-0.2,0.1-0.4,0.2-0.6c0.2-0.1,0.4-0.1,0.6-0.2c0.4-0.1,0.9-0.2,1.3-0.4
	c0.2-0.1,0.4-0.1,0.6-0.2c0.1,0.2,0.2,0.4,0.2,0.5c1.6,3.6,3.1,7.2,4.7,10.8c0.8,1.8,1.6,3.6,2.4,5.4c0.7,1.6,1.4,3.2,2.1,4.8"/>
<path class="st0" d="M204.7,117.7c0-11.8,0-23.7,0-35.5c0-1.8-0.2-3.6,0.9-5.5c0.5-0.9,0.2-1.6-0.7-1.3c-3.7,0.9-7.4,1.8-11.1,2.8
	c-0.9,0.3-1.4,1-0.6,1.6c1,0.8,1,1.9,1,3.2c0,3.3,0,6.5-0.1,9.8c0,0.6,0.3,1.2-0.9,2.2c-0.4-0.4-0.7-0.9-1.2-1.4
	c-3-2.5-5.7-5.3-8.3-8.2c-0.8-0.9-2.1-1.5-1.8-3.3c0.1-0.7-0.6-0.8-1.2-0.6c-3.3,0.9-6.7,1.7-10,2.7c-1.4,0.4-2.2,1.3-1.2,2.6
	c0.5,0.7,0.8,1.5,0.8,2.5c0.1,3.6,0.4,7.2,0.2,10.8c-0.6,9.4-0.3,18.5-0.2,27.7c0,1.5-0.1,2.9-1,4.4c-0.8,1.4-0.4,1.8,1,1.5
	c3.3-0.9,6.7-1.7,10-2.6c1.5-0.4,1.9-1.2,1.1-2.4c-0.7-1.1-1-2.5-0.8-4c0.6-6.8,0.1-13.4,0.3-20.1c0-1.4,0-2.7,0-4
	c1-0.4,1.3,0.1,1.6,0.3c3.5,3.3,6.9,6.6,10.6,9.7c0.8,0.7,1.2,1.7,1.1,2.9c-0.2,1.2,0.1,2.3,0,3.5c-0.2,3.2,1,6.2-1.2,9.8
	c-0.7,1,0.5,1.2,1.2,1c3.5-0.9,7.1-2,10.6-3c0.9-0.3,1.5-1,0.9-1.7C204.4,121.6,204.7,119.6,204.7,117.7z M200.7,105.1
	c0,1.3-0.1,2.6-0.1,3.8c0,1.2-0.1,2.5-0.2,3.6c-0.1,1.1-0.1,2.2-0.2,3.2c-0.1,2-0.3,3.7-0.4,4.9c-0.1,1.2-0.2,1.9-0.2,1.9
	s-0.1-0.6-0.2-1.8c-0.1-1.1-0.3-2.7-0.4-4.7c-0.1-1-0.1-2-0.2-3.1c0-1.1-0.1-2.3-0.1-3.5c0-0.1,0-0.1,0-0.2c-0.2-1.5-1.3-2.6-2-3.2
	c0,0,0,0,0,0c-0.3-0.2-0.7-0.4-1-0.6c-0.6-0.4-1.3-0.9-2-1.4c-0.7-0.5-1.4-1.1-2.1-1.7c-0.7-0.6-1.4-1.3-2.1-1.9
	c-0.7-0.7-1.5-1.3-2.2-2c-1.5-1.3-3-2.7-4.4-3.9c-1.4-1.3-2.7-2.5-3.8-3.5c-1.8-1.7-3.1-2.9-3.5-3.3c0,0.1,0.1,0.7,0.2,1.7
	c0.1,1.1,0.3,2.7,0.4,4.7c0.1,1,0.1,2,0.2,3.1c0,1.1,0.1,2.3,0.1,3.5c0,1.2,0.1,2.5,0.1,3.8c0,1.3,0,2.6,0,3.9c0,1.3,0,2.6-0.1,3.9
	c0,1.3-0.1,2.6-0.1,3.8c0,1.2-0.1,2.5-0.2,3.6c-0.1,1.1-0.1,2.2-0.2,3.2c-0.1,2-0.3,3.7-0.4,4.9c-0.1,1.2-0.2,1.9-0.2,1.9
	s-0.1-0.6-0.2-1.8c-0.1-1.1-0.3-2.7-0.4-4.7c-0.1-1-0.1-2-0.2-3.1c0-1.1-0.1-2.3-0.1-3.5c0-1.2-0.1-2.5-0.1-3.8c0-1.3,0-2.6,0-3.9
	c0-1.3,0-2.6,0.1-3.9c0-1.3,0.1-2.6,0.1-3.8c0-1.2,0.1-2.5,0.2-3.6c0.1-1.1,0.1-2.2,0.2-3.2c0.1-2,0.3-3.7,0.4-4.9
	c0.1-1,0.2-1.7,0.2-1.8c-0.1-0.1-0.1-0.1-0.1-0.1c0.1-0.1,0.1-0.1,0.2-0.2c0,0,1.6,1.2,4.1,2.9c1.2,0.9,2.6,1.9,4.1,3
	c1.5,1.1,3.1,2.3,4.7,3.5c0.8,0.6,1.6,1.2,2.4,1.8c0.8,0.6,1.6,1.1,2.3,1.7c0.5,0.4,1.1,0.9,1.6,1.3c0,0,0,0,0,0
	c1.3,1,2.6,1.9,3.9,2.9c0-1,0-2,0-3c0-1.3,0-2.6,0.1-3.9c0-1.3,0.1-2.6,0.1-3.8c0-1.2,0.1-2.5,0.2-3.6c0.1-1.1,0.1-2.2,0.2-3.2
	c0.1-2,0.3-3.7,0.4-4.9c0.1-1.2,0.2-1.9,0.2-1.9s0.1,0.6,0.2,1.8c0.1,1.1,0.3,2.7,0.4,4.7c0.1,1,0.1,2,0.2,3.1
	c0,1.1,0.1,2.3,0.1,3.5c0,1.2,0.1,2.5,0.1,3.8c0,1.3,0,2.6,0,3.9C200.7,102.5,200.7,103.8,200.7,105.1z M175.4,87.7
	C175.4,87.7,175.4,87.7,175.4,87.7C175.4,87.7,175.4,87.7,175.4,87.7C175.4,87.7,175.4,87.7,175.4,87.7z"/>
<g>
	<path class="st0" d="M88.8,46.1c0,3.2,0,6.4,0,9.6c1-0.2,2.1-0.4,3.1-0.6c0.2-0.8,0.3-1.6,0.5-2.4c0.6-0.1,1.3-0.2,1.9-0.4
		c0,1.6,0,3.1,0,4.7c-3.4,0.6-6.8,1.3-10.2,1.9c0-0.6,0-1.2,0-1.8c0.5-0.3,1-0.5,1.5-0.8c0-3.2,0-6.5,0-9.7c-0.5-0.1-1-0.2-1.5-0.3
		c0-0.6,0-1.1,0-1.7c2.1-0.4,4.2-0.8,6.2-1.2c0,0.6,0,1.2,0,1.8C89.8,45.5,89.3,45.8,88.8,46.1z"/>
	<path class="st0" d="M108.6,39.5c2-0.4,3.6-0.1,4.8,0.9c1.1,1,1.7,2.7,1.7,5c0,2.3-0.6,4.3-1.9,6c-1.3,1.7-2.9,2.7-5,3.2
		c-2,0.4-3.6,0.1-4.7-0.9c-1.1-1-1.6-2.8-1.6-5.2c0-2.3,0.6-4.3,1.8-5.9C104.8,41,106.5,40,108.6,39.5z M108.5,42.1
		c-1.1,0.2-1.9,0.8-2.4,1.6c-0.5,0.9-0.8,2.2-0.8,3.9c0,1.7,0.2,2.9,0.7,3.6c0.5,0.7,1.3,0.9,2.3,0.7c1.1-0.2,1.9-0.8,2.5-1.7
		c0.6-0.9,0.9-2.2,0.9-4c0-1.7-0.3-2.8-0.8-3.5C110.3,42.1,109.5,41.9,108.5,42.1z"/>
	<path class="st0" d="M132.2,37.2c-0.6-0.1-1.4,0-2.3,0.2c-2.3,0.5-3.4,2.4-3.4,5.8c0,3.1,1.2,4.5,3.5,3.9c0.6-0.1,1.2-0.4,1.9-0.8
		c0.6-0.4,1.2-0.7,1.5-1.1c0.2-0.2,0.3-0.3,0.5-0.5c0.4,0.5,0.8,1.1,1.1,1.6c-0.1,0.1-0.1,0.2-0.2,0.3c-0.1,0.1-0.3,0.4-0.7,0.7
		c-0.4,0.3-0.7,0.7-1.1,0.9c-0.4,0.3-0.9,0.6-1.5,0.9c-0.6,0.3-1.2,0.5-1.8,0.7c-2.1,0.5-3.7,0.2-4.8-0.8c-1.1-1-1.7-2.7-1.7-5
		c0-2.4,0.6-4.4,1.9-6.1c1.2-1.6,2.9-2.7,5-3.2c0.7-0.2,1.5-0.3,2.3-0.3c0.8,0,1.4,0,1.8,0.1c0.2,0,0.4,0.1,0.7,0.1
		c0,1.3-0.1,2.6-0.1,3.9c-0.7,0.2-1.3,0.3-2,0.5C132.5,38.4,132.4,37.8,132.2,37.2z"/>
	<path class="st0" d="M151.3,30c1.5,3.7,2.9,7.4,4.4,11.1c0.5,0,1,0.1,1.4,0.1c0,0.6,0,1.2,0,1.8c-2.2,0.5-4.3,1.1-6.5,1.6
		c0-0.6,0-1.2,0-1.8c0.5-0.3,1-0.6,1.5-0.8c-0.2-0.5-0.3-0.9-0.5-1.4c-1.5,0.4-3,0.7-4.5,1.1c-0.2,0.5-0.3,1.1-0.5,1.6
		c0.5,0,1.1,0.1,1.6,0.1c0,0.6,0,1.2,0,1.8c-2.1,0.5-4.1,1-6.2,1.5c0-0.6,0-1.2,0-1.8c0.5-0.3,1-0.6,1.5-0.8c1.5-4.4,3-8.8,4.5-13.2
		C149.1,30.6,150.2,30.3,151.3,30z M149.5,34c-0.5,1.8-1.1,3.5-1.6,5.3c1.1-0.3,2.1-0.5,3.2-0.8C150.5,37,150,35.5,149.5,34z"/>
	<path class="st0" d="M166.4,40.7c0-0.6,0-1.2,0-1.8c0.6-0.3,1.1-0.6,1.7-0.9c0-3.2,0-6.5,0-9.7c-0.6,0.2-1.3,0.3-1.9,0.5
		c-0.2,0.7-0.3,1.4-0.5,2.1c-0.6,0.2-1.3,0.3-1.9,0.5c0-1.4,0-2.9,0-4.3c4-1,7.9-2,11.9-3.1c0,1.5,0,2.9,0,4.4
		c-0.6,0.2-1.3,0.3-1.9,0.5c-0.2-0.6-0.3-1.2-0.5-1.8c-0.6,0.2-1.3,0.3-1.9,0.5c0,3.2,0,6.5,0,9.7c0.6,0,1.1,0.1,1.7,0.1
		c0,0.6,0,1.2,0,1.8C170.8,39.6,168.6,40.1,166.4,40.7z"/>
	<path class="st0" d="M187.8,23.2c0,1.1,0,2.3,0,3.4c1.4-0.4,2.8-0.7,4.1-1.1c0,0.8,0,1.5,0,2.3c-1.4,0.4-2.8,0.7-4.1,1.1
		c0,1.3,0,2.6,0,4c1.2-0.3,2.4-0.6,3.6-0.9c0.2-0.6,0.3-1.2,0.5-1.8c0.6-0.2,1.3-0.3,1.9-0.5c0,1.4,0,2.7,0,4.1
		c-3.6,0.9-7.1,1.8-10.7,2.7c0-0.6,0-1.2,0-1.8c0.5-0.3,1-0.6,1.5-0.9c0-3.2,0-6.5,0-9.7c-0.5-0.1-1-0.1-1.5-0.2c0-0.6,0-1.1,0-1.7
		c1.6-0.4,3.1-0.9,4.7-1.3c1.9-0.5,3.8-1,5.7-1.5c0,1.3,0,2.6,0,4c-0.6,0.2-1.3,0.3-1.9,0.5c-0.2-0.5-0.3-0.9-0.5-1.4
		C190.1,22.6,188.9,22.9,187.8,23.2z"/>
	<path class="st0" d="M202.1,31.6c0-0.6,0-1.2,0-1.8c0.5-0.3,1-0.6,1.5-0.9c0-3.2,0-6.5,0-9.7c-0.5-0.1-1-0.1-1.5-0.2
		c0-0.6,0-1.1,0-1.7c1.6-0.4,3.1-0.9,4.7-1.3c0.6-0.2,1.3-0.3,1.9-0.5c2.1-0.5,3.7-0.3,4.8,0.6c1.1,0.9,1.7,2.5,1.7,4.8
		c0,2.3-0.6,4.3-1.8,5.9c-1.2,1.6-2.9,2.7-5,3.2C206.3,30.5,204.2,31,202.1,31.6z M206.8,18.3c0,3.2,0,6.4,0,9.6
		c0.6-0.1,1.1-0.3,1.7-0.4c1.1-0.3,1.9-0.9,2.5-1.8c0.6-0.9,0.9-2.2,0.9-4c0-1.7-0.3-2.8-0.8-3.4c-0.5-0.6-1.3-0.8-2.4-0.5
		C208,18,207.4,18.2,206.8,18.3z"/>
</g>
<path class="st0" d="M275.6,64.9c-7.4-9.5-21-7.1-28.5,5c-6.5,10.5-7.9,20.9-4.5,30.7c1.8,5.3,5,9.4,10.7,10.9
	c6.6,1.7,15.9-2,20.4-8.3c4.9-6.8,7.1-14,7.2-19.6C281.1,75.2,279.2,69.5,275.6,64.9z M256.9,107.8c-0.2,0-0.4,0-0.7,0
	c-0.3,0-0.6-0.1-0.9-0.1c-0.3-0.1-0.7-0.2-1.1-0.3c-0.4-0.1-0.8-0.3-1.2-0.5c-0.8-0.4-1.7-1-2.6-1.7c-0.8-0.8-1.7-1.7-2.4-2.8
	c-0.7-1.1-1.4-2.3-1.9-3.7c-0.3-0.7-0.5-1.4-0.7-2.2c-0.1-0.4-0.2-0.7-0.3-1.1c-0.1-0.4-0.2-0.8-0.2-1.2c-0.3-1.6-0.4-3.2-0.4-4.9
	c0-1.7,0.1-3.4,0.4-5.2c0.3-1.7,0.7-3.4,1.3-5.1c0.5-1.6,1.2-3.2,2-4.6c0.2-0.4,0.4-0.7,0.6-1c0.2-0.3,0.4-0.7,0.6-1
	c0.4-0.6,0.8-1.3,1.3-1.8c0.9-1.1,1.7-2.1,2.6-2.9c0.8-0.8,1.6-1.4,2.3-1.8c0.7-0.4,1.2-0.7,1.6-0.9c0.3-0.2,0.5-0.2,0.6-0.3
	c0,0-0.2,0.2-0.5,0.4c-0.3,0.2-0.8,0.6-1.4,1.1c-0.6,0.5-1.3,1.2-2,2c-0.7,0.8-1.4,1.8-2.1,2.9c-0.3,0.6-0.7,1.2-1,1.8
	c-0.2,0.3-0.3,0.6-0.5,0.9c-0.2,0.3-0.3,0.7-0.5,1c-0.6,1.4-1.1,2.8-1.6,4.4c-0.4,1.5-0.8,3.1-1,4.7c-0.2,1.6-0.3,3.2-0.3,4.8
	c0,1.6,0.1,3.1,0.3,4.6c0.1,0.4,0.1,0.7,0.2,1.1c0.1,0.4,0.2,0.7,0.2,1.1c0.2,0.7,0.4,1.4,0.6,2.1c0.4,1.3,0.9,2.6,1.5,3.7
	c0.6,1.1,1.2,2.1,1.9,2.9c0.7,0.8,1.4,1.5,2.1,2c0.4,0.3,0.7,0.5,1,0.7c0.3,0.2,0.7,0.3,1,0.5c0.3,0.1,0.6,0.2,0.8,0.3
	c0.2,0.1,0.5,0.1,0.6,0.2c0.3,0.1,0.5,0.1,0.5,0.1C257.4,107.9,257.3,107.9,256.9,107.8z M258.1,103c-3.1-0.6-4.9-2.8-5.8-5.7
	c-1.8-6.4-1.7-13.2,0.5-20.5c0.5-1.8,1.4-3.5,2.5-5.1c3.4-4.6,8-5.5,11.1-2c3.2,3.7,4.2,8.6,4.4,13.3c0,4.6-0.6,8.5-2.2,12.5
	C266.8,100.4,262.1,103.8,258.1,103z M276.7,88.4c-0.1,0.4-0.2,0.8-0.3,1.2c-0.2,0.9-0.4,1.7-0.7,2.5c-0.5,1.6-1.2,3.1-1.9,4.6
	c-0.7,1.4-1.5,2.7-2.4,3.8c-0.9,1.1-1.7,2.1-2.6,2.9c-0.4,0.4-0.8,0.7-1.2,1c-0.4,0.3-0.8,0.6-1.1,0.8c-0.3,0.2-0.7,0.4-0.9,0.5
	c-0.3,0.1-0.5,0.2-0.7,0.3c-0.3,0.2-0.5,0.2-0.6,0.3c0,0,0.2-0.2,0.5-0.4c0.2-0.1,0.4-0.3,0.6-0.5c0.2-0.2,0.5-0.4,0.8-0.7
	c0.3-0.3,0.6-0.6,1-0.9c0.3-0.3,0.7-0.7,1-1.1c0.7-0.8,1.4-1.8,2.1-2.9c0.7-1.1,1.3-2.4,1.9-3.7c0.6-1.4,1.1-2.8,1.5-4.3
	c0.2-0.8,0.4-1.5,0.6-2.3c0.1-0.4,0.2-0.8,0.2-1.2c0.1-0.4,0.1-0.8,0.2-1.2c0.2-1.6,0.3-3.2,0.3-4.8c0-1.6-0.1-3.2-0.3-4.7
	c-0.2-1.5-0.6-2.9-1-4.3c-0.4-1.3-1-2.6-1.6-3.7c-0.1-0.3-0.3-0.6-0.5-0.8c-0.2-0.3-0.3-0.5-0.5-0.7c-0.3-0.5-0.7-0.9-1-1.3
	c-0.7-0.8-1.4-1.5-2.2-2c-0.7-0.5-1.4-0.9-2-1.2c-0.6-0.2-1.1-0.4-1.4-0.5c-0.3-0.1-0.5-0.1-0.5-0.1c0,0,0.2,0,0.6,0
	c0.4,0,0.9,0.1,1.6,0.2c0.7,0.2,1.5,0.4,2.3,0.8c0.8,0.4,1.7,1,2.6,1.8c0.4,0.4,0.9,0.8,1.3,1.3c0.2,0.2,0.4,0.5,0.6,0.7
	c0.2,0.3,0.4,0.5,0.6,0.8c0.8,1.1,1.4,2.4,2,3.8c0.5,1.4,1,2.9,1.3,4.5c0.3,1.6,0.4,3.3,0.4,5c0,1.7-0.2,3.4-0.4,5.1
	C276.9,87.6,276.8,88,276.7,88.4z"/>
<path class="st0" d="M257.1,45.8c-1.2-0.8-2.4-1.5-3.6-2.3c-0.9-0.6-1.9-1.7-2.9-1.5c-1.6,0.2-1.4,2.2-2.2,3.4
	c-4.3,6.2-10.1,9.3-16.5,10.4c-8.4,1.5-16.4,0.8-24.1-0.6c-10.6-1.9-21.4-2.8-33-0.8c-6.3,1.1-12.4,3.6-18.3,7.5
	c-5.7,3.8-9.9,9.2-14.7,14c-0.8,0.8-0.7,1.3-0.2,1.9c1.6,1.6,3.1,3.3,4.9,4.6c1.4,1,2.3,0.8,3.3-1.3c2.5-5,6.7-8.5,11.3-11.2
	c9.9-5.9,19.8-7.5,29.4-6.5c9.8,1,19.5,2.2,29.6,2c2.1,0,2.4,1,2.4,2.8c-0.1,15.4-0.1,30.7-0.2,46c0,1.6,0,3.2-0.8,4.9
	c-0.6,1.3,0,1.6,1.1,1.3c1.6-0.4,3.2-0.8,4.8-1.2c0,0,0,0,0,0.1c1.4-0.3,2.8-0.7,4.1-1c1.6-0.4,3.1-0.8,1.7-2.8
	c-0.4-0.5-0.3-1.5-0.3-2.3c0-15.7,0-31.4,0-47.1c0-1.9,0.7-2.4,2.4-2.9c3.7-1.1,7.2-2.5,10.6-5.2c3.9-3.2,7.3-6.9,10.8-10.5
	C258,46.7,257.8,46.3,257.1,45.8z M249.1,50.8c-0.2,0.2-0.4,0.4-0.6,0.6c-0.2,0.2-0.4,0.4-0.6,0.6c-0.4,0.4-0.9,0.8-1.3,1.2
	c-0.4,0.4-0.9,0.7-1.4,1.1c-0.5,0.4-0.9,0.7-1.4,1.1c-0.5,0.3-1,0.7-1.4,1c-0.5,0.3-1,0.6-1.5,0.9c-0.5,0.3-1,0.6-1.5,0.8
	c-0.5,0.3-1,0.5-1.5,0.8c-0.5,0.3-1,0.5-1.6,0.7c-0.5,0.2-1.1,0.4-1.6,0.6c-0.3,0.1-0.5,0.2-0.8,0.3c-0.3,0.1-0.5,0.2-0.8,0.2
	c-0.3,0.1-0.5,0.1-0.8,0.2c-0.1,0-0.3,0.1-0.4,0.1c-0.1,0-0.3,0.1-0.4,0.1c-0.5,0.1-1,0.2-1.6,0.3c-0.3,0-0.5,0.1-0.8,0.1
	c-0.4,18.3-0.7,36.7-1.1,55c-0.4-18.2-0.7-36.5-1.1-54.7c0.1,0,0.2,0,0.2-0.1c-0.1,0-0.3,0-0.4,0c-0.5,0-1,0.1-1.6,0.1
	c-1,0.1-2.1,0.2-3.1,0.2c-1,0.1-2.1,0.1-3.1,0.1c-1,0-2,0-3,0c-1,0-2,0-3-0.1c-1,0-2-0.1-3-0.2c-1-0.1-2-0.2-3-0.3
	c-1-0.1-2-0.2-3-0.3c0,0,0,0,0,0c0,0,0,0,0,0c-1.1-0.3-2.3-0.5-3.5-0.7c-1.2-0.2-2.4-0.4-3.6-0.5c-1.2-0.2-2.4-0.3-3.6-0.4
	c-0.6-0.1-1.2-0.1-1.8-0.1c-0.3,0-0.6,0-0.9-0.1c-0.3,0-0.6,0-0.9,0c-0.6,0-1.2,0-1.9-0.1c-0.6,0-1.2,0-1.9,0c-0.6,0-1.2,0-1.9,0
	c-0.6,0-1.3,0-1.9,0c-0.6,0-1.3,0.1-1.9,0.1c-0.3,0-0.6,0-1,0.1c-0.3,0-0.6,0.1-1,0.1c-0.6,0.1-1.3,0.1-1.9,0.2
	c-0.6,0.1-1.3,0.2-1.9,0.3c-0.3,0-0.6,0.1-0.9,0.1c-0.3,0.1-0.6,0.1-1,0.2c-0.7,0.1-1.3,0.3-2,0.4c0,0-0.1,0-0.1,0c0,0,0,0,0,0
	c0,0,0,0,0,0c0,0,0,0,0,0c0,0,0,0,0,0c-0.1,0-0.2,0-0.2,0.1c-0.2,0-0.3,0.1-0.5,0.1c-0.3,0.1-0.6,0.2-0.9,0.3
	c-0.3,0.1-0.6,0.2-0.9,0.3c-0.3,0.1-0.6,0.2-0.9,0.4c-1.3,0.5-2.5,1.1-3.7,1.7c-0.6,0.3-1.2,0.7-1.8,1c-0.6,0.3-1.2,0.7-1.8,1.1
	c-0.6,0.4-1.2,0.8-1.8,1.2c-0.3,0.2-0.6,0.4-0.9,0.6c-0.3,0.2-0.6,0.4-0.9,0.7c-0.3,0.2-0.6,0.4-0.9,0.7c-0.3,0.2-0.6,0.5-0.8,0.7
	c-0.3,0.2-0.6,0.5-0.8,0.7c-0.3,0.2-0.5,0.5-0.8,0.7c-0.3,0.2-0.5,0.5-0.8,0.7c-0.3,0.2-0.5,0.5-0.8,0.7c-0.5,0.5-1,1-1.6,1.5
	c-1,1-2,2.1-3,3.2c0.9-1.2,1.8-2.3,2.7-3.5c0.5-0.5,1-1.1,1.5-1.6c0.3-0.3,0.5-0.5,0.8-0.8c0.3-0.3,0.5-0.5,0.8-0.8
	c0.3-0.3,0.5-0.5,0.8-0.8c0.5-0.5,1.1-1,1.6-1.5c0.3-0.2,0.6-0.5,0.9-0.7c0.3-0.2,0.6-0.5,0.8-0.7c0.3-0.2,0.6-0.5,0.9-0.7
	c0.6-0.5,1.2-0.9,1.8-1.3c0.6-0.4,1.2-0.9,1.8-1.2c0.6-0.4,1.2-0.8,1.9-1.1c1.3-0.7,2.6-1.4,3.9-1.9c0.3-0.1,0.7-0.3,1-0.4
	c0.3-0.1,0.7-0.2,1-0.4c0.3-0.1,0.7-0.2,1-0.3c0.2-0.1,0.3-0.1,0.5-0.2c0.1,0,0.2-0.1,0.3-0.1c0,0,0,0,0,0c0,0,0,0,0,0c0,0,0,0,0,0
	c0.1,0,0.1,0,0.2,0c0.7-0.2,1.3-0.3,2-0.5c0.3-0.1,0.6-0.2,1-0.2c0.3-0.1,0.7-0.1,1-0.2c0.7-0.1,1.3-0.3,2-0.4
	c0.7-0.1,1.3-0.2,2-0.3c0.3,0,0.7-0.1,1-0.1c0.3,0,0.7-0.1,1-0.1c0.7-0.1,1.3-0.1,2-0.2c0.6,0,1.3-0.1,1.9-0.1c0.6,0,1.3-0.1,1.9,0
	c0.6,0,1.3,0,1.9,0c0.6,0,1.3,0,1.9,0.1c0.3,0,0.6,0,1,0c0.3,0,0.6,0,0.9,0.1c0.6,0,1.3,0.1,1.9,0.1c1.2,0.1,2.5,0.2,3.7,0.4
	c1.2,0.1,2.5,0.3,3.7,0.5c1.2,0.2,2.4,0.4,3.5,0.7c0,0,0,0,0,0c0.9,0.1,1.9,0.3,2.8,0.4c1,0.1,1.9,0.2,2.9,0.3c1,0.1,2,0.2,2.9,0.2
	c1,0.1,2,0.1,3,0.2c1,0,2,0.1,3,0.1c0.5,0,1,0,1.5,0c0.5,0,1,0,1.5,0c1,0,2,0,3-0.1c0.5,0,1-0.1,1.5-0.1c0.5,0,1-0.1,1.5-0.1
	c0.5,0,1-0.1,1.5-0.1c0.5-0.1,1-0.2,1.6-0.2c0.1,0,0.3,0,0.4-0.1c0.1,0,0.2-0.1,0.4-0.1c0.2-0.1,0.5-0.1,0.7-0.2
	c0.2-0.1,0.5-0.1,0.7-0.2c0.3-0.1,0.5-0.2,0.8-0.2c0.5-0.1,1-0.3,1.5-0.5c0.5-0.2,1-0.3,1.5-0.6c0.5-0.2,1-0.4,1.5-0.7
	c0.5-0.2,1-0.5,1.5-0.7c0.5-0.3,1-0.5,1.5-0.8c0.5-0.3,1-0.6,1.4-0.9c0.5-0.3,0.9-0.6,1.4-0.9c0.5-0.3,0.9-0.7,1.4-1
	c0.9-0.7,1.8-1.4,2.7-2.2c0.9-0.8,1.7-1.6,2.4-2.5C250.7,49,249.9,49.9,249.1,50.8z"/>
<path class="st0" d="M175.4,87.7C175.4,87.7,175.4,87.7,175.4,87.7C175.4,87.7,175.4,87.7,175.4,87.7
	C175.4,87.7,175.4,87.7,175.4,87.7z"/>
<path class="st0" d="M175.4,87.7C175.4,87.7,175.4,87.7,175.4,87.7C175.4,87.7,175.4,87.7,175.4,87.7
	C175.4,87.7,175.4,87.7,175.4,87.7z"/>
<path class="st0" d="M335.5,49.2c-2.8,0.3-5.7,0.6-8.5,1c-1.5,0.2-2.3,0.7-1.6,2.3c0.4,0.9,0.4,1.9,0.2,3c-1.2,7.2-3.1,14.4-5,21.6
	c-0.6,2.2-1,4.6-2.3,7c-1.5-4.1-3-7.8-4.4-11.6c-0.6-1.5-1.8-3.1-1.6-4.7c0.2-2.9-1.2-2.7-3.2-2.2c-1,0.2-2,0.3-3,0.5
	c-1.2,0.2-1.8,0.8-1.6,2c0.2,1.3-0.3,2.6-0.7,3.9c-1.5,4.5-3,9-4.5,13.5c-0.2,0.5-0.3,1-0.9,1.4c-0.1-0.2-0.3-0.4-0.4-0.6
	c-2.4-8.5-5-16.9-6.7-25.7c-0.2-1-0.1-2.1,0.4-3.3c0.6-1.2,0.3-1.9-1.1-1.7c-3.3,0.6-6.5,1.2-9.8,1.9c-1.4,0.3-1.7,1-0.8,1.9
	c1,0.9,1.5,2.2,1.9,3.5c1,3.6,1.9,7.2,2.9,10.8c2.2,8.2,4.4,16.3,6.6,24.5c0.4,1.5,0.7,3,0.5,4.6c-0.3,1.5,0.4,1.8,1.8,1.7
	c2.4-0.2,4.8-1.1,7.2-1.1c2.6,0,3.1-0.6,3-3.3c0-0.4,0-0.9,0.1-1.3c1.3-4.7,2.6-9.5,4.6-14.2c1.8,4.8,4.2,9.4,4.7,14.8
	c0.1,1.1,0.4,1.7,1.6,1.6c2.9-0.2,5.8-0.5,8.7-1.2c0.9-0.2,1.3-0.6,1.2-1.5c-0.3-2.9,0.5-5.8,1.3-8.7c3-10.8,5.7-21.7,8.3-32.5
	c0.5-2.1,0.7-4.3,2.1-6.1C337.7,49.5,337.1,49,335.5,49.2z M329.9,58.5c-0.4,1.8-0.8,3.6-1.2,5.3c-0.4,1.8-0.8,3.6-1.2,5.3
	c-0.4,1.8-0.8,3.6-1.2,5.3c-0.8,3.5-1.7,7.1-2.5,10.7c-0.9,3.6-1.7,7.1-2.6,10.7c-0.1,0.3-0.2,0.6-0.2,0.9l-2.2,0.4l-10.4-22.9
	c-3,7.9-5.9,15.9-8.9,23.9c-0.1,0.1-0.1,0.3-0.2,0.4c-0.1,0-0.3,0.1-0.4,0.1c-0.7,0.1-1.4,0.3-2.1,0.4c-0.2,0-0.3,0.1-0.5,0.1
	c0-0.1-0.1-0.3-0.1-0.4c-0.9-3.2-1.8-6.5-2.7-9.7c-0.9-3.2-1.8-6.5-2.7-9.7c-1.8-6.5-3.5-12.9-5.3-19.4c0.1,0,0.1-0.1,0.2-0.1
	c1.9,6.4,3.9,12.8,5.8,19.2c1,3.2,1.9,6.4,2.9,9.6c0.9,3.1,1.8,6.1,2.8,9.2c0.4-0.1,0.8-0.2,1.2-0.2c2.9-8.1,5.7-16.2,8.6-24.3
	c0.1-0.2,0.1-0.4,0.2-0.6c0.2,0,0.4-0.1,0.6-0.1c0.4-0.1,0.9-0.2,1.3-0.2c0.2,0,0.4-0.1,0.6-0.1c0.1,0.2,0.2,0.4,0.2,0.5
	c1.6,3.7,3.1,7.5,4.7,11.3c0.8,1.9,1.6,3.8,2.4,5.6c0.7,1.7,1.4,3.3,2.1,5l0.2,0.1l0-0.1c0.8-3.2,1.7-6.5,2.6-9.7
	c0.9-3.5,1.9-7.1,2.9-10.6c0.5-1.8,1-3.5,1.5-5.3c0.5-1.8,1-3.5,1.5-5.3c0.5-1.8,1-3.5,1.6-5.3c0.5-1.8,1-3.5,1.6-5.3
	c0.1,0,0.1,0,0.2,0C330.7,54.9,330.3,56.7,329.9,58.5z"/>
<line class="st0" x1="320.3" y1="96.7" x2="320" y2="96.8"/>
<path class="st0" d="M346.9,53.2C346.9,53.2,346.9,53.2,346.9,53.2C346.9,53.2,346.9,53.2,346.9,53.2
	C346.9,53.2,346.9,53.2,346.9,53.2z M346.9,53.2C346.9,53.2,346.9,53.2,346.9,53.2C346.9,53.2,346.9,53.2,346.9,53.2
	C346.9,53.2,346.9,53.2,346.9,53.2z M376.2,89.5c0-11.8,0-23.7,0-35.5c0-1.8-0.2-3.6,0.9-5.3c0.5-0.8,0.2-1.5-0.8-1.5
	c-3.7-0.1-7.4,0-11.1,0.2c-0.9,0-1.4,0.7-0.6,1.5c1,1,1,2.2,1,3.4c0,3.3,0,6.5-0.1,9.8c0,0.6,0.3,1.3-0.9,2
	c-0.4-0.5-0.7-1.1-1.2-1.6c-3-3.2-5.7-6.5-8.3-10c-0.8-1.1-2.1-1.9-1.8-3.7c0.1-0.7-0.6-0.9-1.2-0.8c-3.3,0.2-6.7,0.5-10,0.9
	c-1.4,0.2-2.2,0.9-1.2,2.4c0.5,0.8,0.8,1.7,0.8,2.6c0.1,3.6,0.4,7.3,0.2,10.9c-0.6,9.3-0.3,18.5-0.2,27.7c0,1.5-0.1,2.9-1,4.2
	c-0.8,1.2-0.4,1.8,1,1.7c3.3-0.3,6.7-0.6,10-0.9c1.5-0.1,1.9-0.9,1.1-2.2c-0.7-1.3-1-2.7-0.8-4.2c0.6-6.7,0.1-13.3,0.3-20
	c0-1.3,0-2.7,0-4c1-0.2,1.3,0.3,1.6,0.6c3.5,4,6.9,8,10.6,11.9c0.8,0.9,1.2,2,1.1,3.2c-0.2,1.2,0.1,2.3,0,3.5
	c-0.2,3.2,1,6.5-1.2,9.5c-0.7,0.9,0.5,1.3,1.2,1.3c3.5-0.1,7.1-0.3,10.6-0.5c0.9,0,1.5-0.6,0.9-1.5
	C375.9,93.3,376.2,91.4,376.2,89.5z M372.2,75.9c0,1.3-0.1,2.6-0.1,3.8c0,1.2-0.1,2.4-0.2,3.6c-0.1,1.1-0.1,2.2-0.2,3.2
	c-0.1,2-0.3,3.6-0.4,4.8c-0.1,1.2-0.2,1.8-0.2,1.8s-0.1-0.7-0.2-1.8c-0.1-1.1-0.3-2.8-0.4-4.8c-0.1-1-0.1-2.1-0.2-3.2
	c0-1.1-0.1-2.3-0.1-3.6c0,0,0-0.1,0-0.1c-0.2-1.6-1.3-2.9-2-3.7c0,0,0,0,0,0c-0.3-0.3-0.7-0.6-1-0.9c-0.6-0.6-1.3-1.2-2-1.8
	c-0.7-0.7-1.4-1.4-2.1-2.1c-0.7-0.8-1.4-1.6-2.1-2.4c-0.7-0.8-1.5-1.7-2.2-2.5c-1.5-1.6-3-3.3-4.4-4.8c-1.4-1.5-2.7-3-3.8-4.2
	c-1.8-2-3.1-3.5-3.5-3.9c0,0.2,0.1,0.8,0.2,1.7c0.1,1.1,0.3,2.8,0.4,4.7c0.1,1,0.1,2,0.2,3.2c0,1.1,0.1,2.3,0.1,3.5
	c0,1.2,0.1,2.5,0.1,3.8c0,1.3,0,2.6,0,3.9c0,1.3,0,2.6-0.1,3.9c0,1.3-0.1,2.6-0.1,3.8c0,1.2-0.1,2.4-0.2,3.6
	c-0.1,1.1-0.1,2.2-0.2,3.2c-0.1,2-0.3,3.6-0.4,4.8c-0.1,1.2-0.2,1.8-0.2,1.8s-0.1-0.7-0.2-1.8c-0.1-1.1-0.3-2.8-0.4-4.7
	c-0.1-1-0.1-2-0.2-3.2c0-1.1-0.1-2.3-0.1-3.5c0-1.2-0.1-2.5-0.1-3.8c0-1.3,0-2.6,0-3.9c0-1.3,0-2.6,0.1-3.9c0-1.3,0.1-2.6,0.1-3.8
	c0-1.2,0.1-2.4,0.2-3.6c0.1-1.1,0.1-2.2,0.2-3.2c0.1-2,0.3-3.6,0.4-4.8c0.1-1,0.2-1.7,0.2-1.8c-0.1-0.1-0.1-0.1-0.1-0.1
	c0.1-0.1,0.1-0.1,0.2-0.2c0,0,1.6,1.4,4.1,3.7c1.2,1.1,2.6,2.4,4.1,3.8c1.5,1.4,3.1,3,4.7,4.5c0.8,0.8,1.6,1.5,2.4,2.3
	c0.8,0.7,1.6,1.5,2.3,2.2c0.1,0.1,0.3,0.3,0.4,0.4c0.1,0.1,0.2,0.2,0.3,0.3c0.1,0.1,0.3,0.3,0.4,0.4c0.2,0.2,0.3,0.4,0.5,0.6
	c0,0,0,0,0,0c1.3,1.3,2.6,2.5,3.9,3.8c0-1,0-2,0-3c0-1.3,0-2.6,0.1-3.9c0-1.3,0.1-2.6,0.1-3.8c0-1.2,0.1-2.4,0.2-3.6
	c0.1-1.1,0.1-2.2,0.2-3.2c0.1-2,0.3-3.6,0.4-4.8c0.1-1.2,0.2-1.8,0.2-1.8c0,0,0.1,0.7,0.2,1.8c0.1,1.1,0.3,2.8,0.4,4.8
	c0.1,1,0.1,2.1,0.2,3.2c0,1.1,0.1,2.3,0.1,3.6c0,1.2,0.1,2.5,0.1,3.8c0,1.3,0,2.6,0,3.9C372.2,73.3,372.2,74.6,372.2,75.9z
	 M346.9,53.2C346.9,53.2,346.9,53.2,346.9,53.2C346.9,53.2,346.9,53.2,346.9,53.2C346.9,53.2,346.9,53.2,346.9,53.2z M346.9,53.2
	C346.9,53.2,346.9,53.2,346.9,53.2C346.9,53.2,346.9,53.2,346.9,53.2C346.9,53.2,346.9,53.2,346.9,53.2z M346.9,53.2
	C346.9,53.2,346.9,53.2,346.9,53.2C346.9,53.2,346.9,53.2,346.9,53.2C346.9,53.2,346.9,53.2,346.9,53.2z"/>
<path class="st0" d="M346.9,53.2C346.9,53.2,346.9,53.2,346.9,53.2C346.9,53.2,346.9,53.2,346.9,53.2
	C346.9,53.2,346.9,53.2,346.9,53.2z"/>
<path class="st0" d="M346.9,53.2C346.9,53.2,346.9,53.2,346.9,53.2C346.9,53.2,346.9,53.2,346.9,53.2
	C346.9,53.2,346.9,53.2,346.9,53.2z"/>
<path class="st0" d="M165.2,179.7c-0.6-10.8-3.8-19.6-9.6-26.8c-3.5-4.3-8.8-4.7-14-3.1c-9.9,3.5-15.8,9.9-18.5,18.9
	c-1.2,4.1-1.4,8-1,11.7c0.4,3.6,0.4,3.6-3.1,3.4c-2.4-0.2-2.8,0.2-3,2.7c-0.1,1-0.2,2-0.5,2.9c-1.5,5.3-1.9,10.4-2.1,15.5
	c-0.2,5.7,0.7,10.9,1.7,16.1c1.6,8.2,5.4,14.4,12.6,17.4c5.3,2.2,11.3,2.3,17.9-3c5.9-4.7,10.4-10.3,13.1-17.4
	C163.6,204.7,165.8,192,165.2,179.7z M125.9,192.2c0-0.7,0-1.6,0.8-2.2c0.7-0.6,1.1,0.1,1.6,0.4c3.6,2.4,7.7,3.6,12.3,4.2
	c1.6,0.2,2.8-0.2,3.5-2.3c1.2-3.6,2.3-7.2,3.4-10.8c0.6-1.8,0.1-2.6-1.8-2.2c-6.6,1.4-12-4.2-10.9-11.1c0.4-2.4,1.5-4.7,3.8-6.3
	c2.3-1.6,4.3-1.6,6-0.6c2.9,1.8,4.6,4.7,5.6,8.2c2.8,9.6,4,20,2.7,31.5c-0.7,5.7-2.2,11.6-5.4,17.4c-4.5,8.4-11.1,10.9-16,6
	c-3.3-3.3-4.7-7.8-5.3-12.9c-0.4-3-0.6-6-0.5-9.3C125.1,199.1,125.7,195.6,125.9,192.2z M160.2,192.9c0,0.8-0.1,1.7-0.1,2.5
	c0,0.8-0.1,1.7-0.2,2.5c-0.3,3.3-0.8,6.7-1.6,10.2c-0.4,1.7-1,3.5-1.6,5.2c-0.7,1.8-1.4,3.5-2.3,5.2c-1.8,3.5-4.2,6.8-7.1,9.6
	c-0.7,0.7-1.5,1.3-2.3,1.9c-0.8,0.6-1.6,1.1-2.4,1.6c-0.8,0.5-1.6,0.9-2.5,1.3c-0.4,0.2-0.8,0.4-1.2,0.5c-0.2,0.1-0.4,0.2-0.6,0.2
	c-0.3,0.1-0.4,0.1-0.7,0.2c-0.1,0-0.2,0.1-0.4,0.1c-0.1,0-0.2,0-0.3,0.1c-0.2,0-0.4,0.1-0.6,0.1c-0.4,0.1-0.8,0.1-1.2,0.1
	c-0.8,0-1.6,0-2.4-0.1c-1.5-0.2-2.9-0.6-4.2-1.2c-1.3-0.6-2.4-1.4-3.4-2.4c-0.5-0.5-1-1-1.4-1.6c-0.4-0.6-0.8-1.1-1.2-1.8
	c-1.4-2.5-2.4-5.3-3-8.3c-0.6-3-0.8-6.1-0.8-9.4c0-3.2,0.2-6.5,0.6-9.8c0.2-1.6,0.4-3.3,0.7-5c0.2-1.7,0.6-3.3,0.9-5
	c-0.2,1.7-0.5,3.3-0.6,5c-0.2,1.6-0.4,3.3-0.4,4.9c-0.3,3.3-0.3,6.5-0.2,9.6c0.1,3.1,0.5,6.2,1.1,9c0.6,2.9,1.7,5.5,3.1,7.8
	c0.3,0.6,0.8,1.1,1.2,1.6c0.4,0.5,0.9,1,1.4,1.4c1,0.9,2,1.6,3.2,2.1c1.2,0.5,2.5,0.9,3.9,1c0.7,0.1,1.4,0.1,2.1,0
	c0.4,0,0.7-0.1,1.1-0.1c0.2,0,0.4-0.1,0.5-0.1c0.1,0,0.2,0,0.3-0.1c0.1,0,0.2,0,0.2-0.1c0.1,0,0.4-0.1,0.5-0.2
	c0.2-0.1,0.4-0.2,0.6-0.2c0.4-0.2,0.8-0.3,1.1-0.5c0.8-0.4,1.5-0.8,2.2-1.2c0.7-0.4,1.4-1,2.1-1.5c0.7-0.6,1.4-1.1,2-1.7
	c2.6-2.5,4.7-5.5,6.4-8.7c0.8-1.6,1.5-3.2,2.1-4.9c0.6-1.6,1.1-3.3,1.4-4.9c0.8-3.3,1.3-6.6,1.5-9.8c0.1-0.8,0.1-1.6,0.2-2.4
	c0-0.8,0.1-1.6,0.1-2.4c0-0.8,0-1.6,0-2.4c0-0.8,0-1.6,0-2.3c0-3.2-0.2-6.3-0.5-9.3c-0.3-3.1-0.7-6-1.3-8.9c-0.6-2.9-1.4-5.6-2.6-8
	c-0.3-0.6-0.6-1.2-0.9-1.8c-0.2-0.3-0.4-0.6-0.5-0.8c-0.1-0.1-0.2-0.3-0.3-0.4c-0.1-0.1-0.2-0.3-0.3-0.4c-0.8-1.1-1.7-2-2.7-2.7
	c-1-0.7-2.2-1.3-3.5-1.6c-0.6-0.1-1.3-0.2-2-0.2c-0.3,0-0.7,0-1.1,0.1c-0.2,0-0.4,0.1-0.5,0.1c-0.2,0-0.4,0.1-0.5,0.1c0,0,0,0-0.1,0
	c-0.9,0.3-1.9,0.7-2.8,1.2c-0.9,0.5-1.9,1-2.7,1.7c-1.8,1.2-3.4,2.8-4.7,4.6c-0.6,0.9-1.2,1.8-1.6,2.8c-0.4,1-0.8,2-1,3
	c-0.1,0.2-0.1,0.5-0.2,0.7c0,0.2-0.1,0.5-0.1,0.7c0,0.5-0.1,1-0.1,1.5c0,0.3,0,0.5,0,0.8c0,0.1,0,0.1,0,0.2c0,0.1,0,0.1,0,0.2
	c0,0.1,0,0.2,0,0.4c0,0.2,0,0.5,0,0.7c0,0.2,0,0.5,0.1,0.7c0.1,0.9,0.2,1.8,0.5,2.7c0.2,0.8,0.5,1.7,0.9,2.4
	c0.4,0.8,0.8,1.5,1.3,2.1c0.5,0.7,1.1,1.3,1.7,1.8c1.2,1.1,2.7,1.9,4.2,2.6c0.8,0.3,1.6,0.6,2.4,0.8c0.8,0.2,1.7,0.4,2.6,0.5
	c-0.9,0-1.8-0.2-2.7-0.3c-0.9-0.2-1.7-0.4-2.5-0.7c-0.8-0.3-1.6-0.6-2.3-1c-0.7-0.4-1.5-0.9-2.1-1.4c-0.7-0.5-1.3-1.1-1.8-1.7
	c-0.6-0.6-1.1-1.4-1.5-2.1c-0.4-0.8-0.8-1.6-1.1-2.5c-0.3-0.9-0.5-1.8-0.6-2.8c0-0.2-0.1-0.5-0.1-0.7c0-0.3,0-0.5,0-0.8
	c0-0.1,0-0.2,0-0.4c0-0.1,0-0.1,0-0.2c0-0.1,0-0.1,0-0.2c0-0.2,0-0.5,0-0.7c0-0.5,0.1-1,0.1-1.6c0-0.3,0.1-0.5,0.1-0.8
	c0-0.3,0.1-0.5,0.1-0.8c0.2-1.1,0.6-2.2,1-3.3c0.4-1.1,1-2.2,1.7-3.2c1.4-2.1,3.2-3.9,5.2-5.3c1-0.7,2-1.3,3-1.9c1-0.5,2-1,3.1-1.4
	c0.3-0.1,0.4-0.1,0.6-0.2c0.2-0.1,0.4-0.1,0.7-0.1c0.4-0.1,0.9-0.1,1.3-0.1c0.8,0,1.6,0,2.4,0.2c1.5,0.3,2.8,0.9,4,1.7
	c1.2,0.8,2.1,1.8,3,2.9c0.1,0.1,0.2,0.3,0.3,0.4c0.1,0.1,0.2,0.3,0.3,0.4c0.2,0.3,0.4,0.6,0.6,0.9c0.3,0.6,0.7,1.2,1,1.9
	c1.3,2.6,2.2,5.4,2.8,8.3c0.1,0.4,0.2,0.7,0.3,1.1c0.1,0.4,0.1,0.7,0.2,1.1c0.1,0.7,0.3,1.5,0.4,2.3c0.1,0.8,0.2,1.5,0.3,2.3
	c0.1,0.8,0.2,1.5,0.2,2.3c0.3,3.1,0.5,6.3,0.5,9.5c0,0.8,0,1.6,0,2.4C160.2,191.3,160.2,192.1,160.2,192.9z"/>
<path class="st0" d="M221.1,186.3c0.1-12,0.3-24.1,0.4-36.1c0-1.1,0-2.2,0.6-3.4c1.1-2.1,0.1-2.2-1.4-1.7c-2.7,0.9-5.4,1.9-8.1,3
	c-1.6,0.6-3.4,1-2.9,3.5c0.1,0.5-0.5,1.5-0.9,2.3c-3.3,6.3-6.7,12.6-10,19c-0.9,1.8-1.4,2-2.3,0.9c-3.3-4.2-6.7-8.4-10-12.6
	c-0.3-0.4-0.7-0.7-0.5-1.4c0.4-1.6-0.5-1.3-1.5-1.2c-2.6,0.4-5.2,2.1-7.8,3c-3.2,1.1-3.2,1.2-2.3,3.9c0.1,0.3,0.1,0.7,0.2,1
	c0.9,3.4-0.1,7.5,0,11.3c0.1,11.1,0,22.3,0,33.5c0,3.4-1,6.8-2.9,10.3c-1.4,2.5-2.9,4.7-5.7,5.4c-1.2,0.3-1.8,1.1-1.5,2.3
	c0.7,3.4,1.9,6.6,3.2,9.6c0.4,0.9,1,0.9,2-0.1c9.8-10,15.5-20.8,15.5-32.8c-0.1-8.4,0-16.8,0-25.2c0.2-0.2,0.4-0.3,0.5-0.5
	c0.1,0.2,0.3,0.4,0.4,0.6c1.7,1.8,3.9,3.1,4.9,5.3c1.5,3.8,4.5,2.9,8.2,1.2c1.9-0.9,3.8-1.3,3.7-4c0-0.3,0.3-0.8,0.5-1.1
	c2-3.4,3.9-6.8,5.9-10.3c0.3-0.5,0.5-1.3,1.3-1.3c0,5.7,0.3,11.3-0.1,17.2c-0.2,3,1,5.7-0.7,9.2c-0.4,0.8,0.3,0.9,0.9,0.8
	c3.5-0.9,7.1-2.2,10.6-3.9c0.9-0.4,1.4-1.1,0.8-1.8C221,190.5,221.1,188.4,221.1,186.3z M180.8,196.7c0,2.1,0,4.2-0.1,6.2
	c0,1-0.1,2.1,0,3c0,1-0.1,2.1-0.2,3.1c-0.2,2.1-0.6,4.1-1.1,6.1c-0.5,1.9-1.2,3.8-1.9,5.5c-0.8,1.7-1.6,3.2-2.5,4.5
	c-0.9,1.3-1.7,2.3-2.5,3.2c-0.7,0.8-1.4,1.4-1.8,1.8c-0.4,0.4-0.7,0.6-0.7,0.6s0.2-0.2,0.6-0.7c0.4-0.4,1-1.1,1.6-1.9
	c0.7-0.9,1.4-1.9,2.1-3.2c0.7-1.3,1.4-2.7,2-4.4c0.6-1.6,1.1-3.4,1.5-5.2c0.4-1.8,0.6-3.8,0.8-5.7c0.1-1,0.1-1.9,0.1-2.9
	c0-0.1,0-0.2,0-0.3c0,0,0-0.1,0-0.1c0,0,0-0.1,0-0.1c0-0.1,0-0.1,0-0.2c0-0.3,0-0.5,0-0.8c0-0.5,0-1,0-1.5c0-2,0-4.1,0-6.2
	c0-2.1,0-4.2,0.1-6.2c0-2,0.1-4.1,0.1-6c0-2,0.1-3.9,0.2-5.7c0.1-1.8,0.1-3.5,0.2-5.1c0.1-1.6,0.2-3,0.2-4.3
	c0.1-1.3,0.2-2.4,0.2-3.4c0.1-0.9,0.1-1.7,0.2-2.2c0-0.5,0.1-0.8,0.1-0.8s0,0.3,0.1,0.7c0,0.5,0.1,1.2,0.1,2.1
	c0.1,0.9,0.1,2,0.2,3.2c0.1,1.2,0.1,2.6,0.2,4.2c0.1,1.5,0.1,3.2,0.2,5c0,1.8,0.1,3.6,0.1,5.6c0,1.9,0.1,3.9,0.1,6
	C180.8,192.6,180.8,194.6,180.8,196.7z M198,181.2c0.6-1.1,1.2-2.2,1.8-3.2c0.7-1.3,1.4-2.6,2.1-3.8c1.4-2.6,2.9-5.1,4.3-7.7
	c0.7-1.3,1.5-2.5,2.2-3.8c0.7-1.3,1.5-2.5,2.2-3.8c0.8-1.3,1.5-2.5,2.3-3.8c0.8-1.3,1.5-2.5,2.3-3.8c-0.6,1.3-1.2,2.6-1.8,3.9
	c-0.6,1.3-1.3,2.6-1.9,3.9c-0.6,1.3-1.3,2.6-1.9,3.9c-0.6,1.3-1.3,2.6-2,3.9c-1.3,2.6-2.7,5.2-4,7.8c-0.7,1.3-1.4,2.6-2.1,3.9
	c-0.7,1.3-1.4,2.6-2.1,3.9c-0.1,0.2-0.2,0.4-0.3,0.6c-0.2,0.1-0.4,0.1-0.6,0.2c-0.5,0.2-1.1,0.4-1.6,0.6c-0.2,0.1-0.4,0.1-0.6,0.2
	c-0.1-0.1-0.2-0.2-0.3-0.4c-1.4-1.5-2.7-3.1-4-4.6c-0.7-0.8-1.3-1.6-2-2.3c-0.7-0.8-1.3-1.6-1.9-2.4c-0.6-0.8-1.3-1.6-1.9-2.4
	c-0.3-0.4-0.6-0.8-1-1.2c-0.3-0.4-0.6-0.8-0.9-1.2c-0.6-0.8-1.3-1.6-1.9-2.5c-0.6-0.8-1.2-1.7-1.8-2.5c0.8,0.7,1.5,1.3,2.3,2
	c0.8,0.7,1.5,1.4,2.2,2.1c0.4,0.3,0.7,0.7,1.1,1.1c0.4,0.4,0.7,0.7,1.1,1.1c0.7,0.7,1.4,1.4,2.2,2.2c0.7,0.7,1.4,1.4,2.1,2.2
	c0.7,0.7,1.4,1.5,2.1,2.2c1.3,1.4,2.6,2.7,3.8,4.1 M217.4,174.8c0,1.3-0.1,2.6-0.1,3.8c0,1.2-0.1,2.5-0.2,3.6
	c-0.1,1.1-0.1,2.2-0.2,3.2c-0.1,2-0.3,3.7-0.4,4.9c-0.1,1.2-0.2,1.9-0.2,1.9s-0.1-0.6-0.2-1.7c-0.1-1.1-0.3-2.7-0.4-4.6
	c-0.1-1-0.1-2-0.2-3.1c0-1.1-0.1-2.3-0.1-3.5c0-1.2-0.1-2.5-0.1-3.8c0-1.3,0-2.6,0-3.9c0-1.3,0-2.6,0.1-3.9c0-1.3,0.1-2.6,0.1-3.8
	c0-1.2,0.1-2.5,0.2-3.6c0.1-1.1,0.1-2.2,0.2-3.2c0.1-2,0.3-3.7,0.4-4.9c0.1-1.2,0.2-1.9,0.2-1.9s0.1,0.6,0.2,1.7
	c0.1,1.1,0.3,2.7,0.4,4.6c0.1,1,0.1,2,0.2,3.1c0,1.1,0.1,2.3,0.1,3.5c0,1.2,0.1,2.5,0.1,3.8c0,1.3,0,2.6,0,3.9
	C217.4,172.1,217.4,173.5,217.4,174.8z"/>
<path class="st0" d="M254.2,163.9c-0.6-1.4-1.1-2.8-1.6-4.1c-0.3-0.7-0.5-1.4-0.8-2.1c-0.3-0.7-0.5-1.4-0.8-2.1
	c-0.5-1.4-1-2.8-1.5-4.2c-0.9-2.7-1.7-5.3-2.6-8c-0.3,0.1-0.7,0.2-1,0.3c-1.9,6.8-3.9,13.5-5.8,20.3c-1,3.5-2,6.9-3,10.4
	c0.1-0.1,0.3-0.2,0.5-0.3c0.5-0.3,1.3-0.8,2.3-1.2c0.9-0.5,2-1,3.2-1.5c0.6-0.2,1.2-0.5,1.8-0.7c0.6-0.2,1.2-0.5,1.9-0.7
	c0.6-0.2,1.3-0.4,1.9-0.6c0.6-0.2,1.2-0.4,1.8-0.5c1.2-0.3,2.3-0.6,3.2-0.8c0.8-0.2,1.5-0.3,2-0.3
	C255.2,166.5,254.7,165.2,254.2,163.9z M248.7,165.7c-1.4,0.3-2.7,0.9-4.1,1.6c-0.6,0.3-1.6,0.8-1.3-0.4c1.1-3.9,1.7-7.7,3.6-11.7
	c0.9,2.9,1.9,5.9,2.8,8.8C250.1,164.8,249.9,165.4,248.7,165.7z M254.2,163.9c-0.6-1.4-1.1-2.8-1.6-4.1c-0.3-0.7-0.5-1.4-0.8-2.1
	c-0.3-0.7-0.5-1.4-0.8-2.1c-0.5-1.4-1-2.8-1.5-4.2c-0.9-2.7-1.7-5.3-2.6-8c-0.3,0.1-0.7,0.2-1,0.3c-1.9,6.8-3.9,13.5-5.8,20.3
	c-1,3.5-2,6.9-3,10.4c0.1-0.1,0.3-0.2,0.5-0.3c0.5-0.3,1.3-0.8,2.3-1.2c0.9-0.5,2-1,3.2-1.5c0.6-0.2,1.2-0.5,1.8-0.7
	c0.6-0.2,1.2-0.5,1.9-0.7c0.6-0.2,1.3-0.4,1.9-0.6c0.6-0.2,1.2-0.4,1.8-0.5c1.2-0.3,2.3-0.6,3.2-0.8c0.8-0.2,1.5-0.3,2-0.3
	C255.2,166.5,254.7,165.2,254.2,163.9z M248.7,165.7c-1.4,0.3-2.7,0.9-4.1,1.6c-0.6,0.3-1.6,0.8-1.3-0.4c1.1-3.9,1.7-7.7,3.6-11.7
	c0.9,2.9,1.9,5.9,2.8,8.8C250.1,164.8,249.9,165.4,248.7,165.7z M266,176.1c-1.3-0.7-1.6-2.2-2.1-3.5c-3.2-9.4-6.2-18.9-8.9-28.6
	c-0.8-3-2-5.8-1.8-9.4c0.1-1.2-0.6-1.3-1.6-0.9c-1.6,0.6-3.2,1.1-4.8,1.7c0,0,0,0,0,0c-1.7,0.6-3.3,1.2-5,1.8
	c-1.2,0.4-1.8,1.1-1.7,2.3c0.4,4.6-1,9.6-2.6,14.4c-3.8,11.9-5.2,23.8-10.4,35.8c-0.4,1-0.5,2,0.8,1.6c3.5-1.2,7-2.5,10.4-3.7
	c0.7-0.3,1.4-1,1-1.6c-0.9-1.6,0.4-3.6,0.6-5.4c0.1-1.4,0.9-2.1,2.2-2.6c2.8-1,5.5-1.8,8.3-3c1.5-0.7,2.6-0.4,3,1.1
	c0.3,1.5,0.8,2.8,0.4,4.6c-0.2,0.9,0,1.3,0.9,1.1c3.6-1.1,7.1-2.2,10.7-3.7C266.5,177.5,266.9,176.6,266,176.1z M259.5,176.1
	c-0.6-1.3-1.3-2.6-1.9-4c-0.6-1.3-1.1-2.6-1.7-3.9c-0.5,0.3-1.3,0.7-2.2,1.1c-0.9,0.5-2,1-3.2,1.4c-0.6,0.2-1.2,0.5-1.8,0.7
	c-0.6,0.2-1.2,0.5-1.9,0.7c-0.6,0.2-1.3,0.4-1.9,0.6c-0.6,0.2-1.2,0.4-1.8,0.5c-1.2,0.3-2.3,0.6-3.2,0.8c-0.9,0.2-1.7,0.3-2.3,0.4
	c-0.2,0-0.4,0.1-0.6,0.1c-1,3.5-2,7-3,10.5c-0.1,0-0.1,0-0.2,0c1.8-7,3.5-14,5.3-21c1.8-7,3.6-14,5.4-21c0.1-0.2,0.1-0.4,0.2-0.7
	c0.2-0.1,0.4-0.2,0.6-0.2c0.8-0.3,1.6-0.6,2.3-0.9c0.2-0.1,0.4-0.2,0.6-0.2c0.1,0.2,0.1,0.4,0.2,0.6c1.1,2.8,2.1,5.5,3.2,8.3
	c0.5,1.4,1,2.8,1.5,4.2c0.2,0.7,0.5,1.4,0.7,2.1c0.2,0.7,0.5,1.4,0.7,2.1c0.5,1.4,0.9,2.9,1.4,4.3c0.4,1.4,0.9,2.9,1.3,4.3
	c0.4,1.5,0.8,2.9,1.2,4.4c0.4,1.5,0.8,3,1.1,4.5C259.6,176,259.5,176,259.5,176.1z M240,172.9c0.9-0.5,2-1,3.2-1.5
	c0.6-0.2,1.2-0.5,1.8-0.7c0.6-0.2,1.2-0.5,1.9-0.7c0.6-0.2,1.3-0.4,1.9-0.6c0.6-0.2,1.2-0.4,1.8-0.5c1.2-0.3,2.3-0.6,3.2-0.8
	c0.8-0.2,1.5-0.3,2-0.3c-0.5-1.3-1-2.5-1.6-3.8c-0.6-1.4-1.1-2.8-1.6-4.1c-0.3-0.7-0.5-1.4-0.8-2.1c-0.3-0.7-0.5-1.4-0.8-2.1
	c-0.5-1.4-1-2.8-1.5-4.2c-0.9-2.7-1.7-5.3-2.6-8c-0.3,0.1-0.7,0.2-1,0.3c-1.9,6.8-3.9,13.5-5.8,20.3c-1,3.5-2,6.9-3,10.4
	c0.1-0.1,0.3-0.2,0.5-0.3C238.2,173.8,239,173.4,240,172.9z M243.4,166.9c1.1-3.9,1.7-7.7,3.6-11.7c0.9,2.9,1.9,5.9,2.8,8.8
	c0.3,0.9,0.1,1.5-1.1,1.8c-1.4,0.3-2.7,0.9-4.1,1.6C244,167.6,243,168.1,243.4,166.9z M254.2,163.9c-0.6-1.4-1.1-2.8-1.6-4.1
	c-0.3-0.7-0.5-1.4-0.8-2.1c-0.3-0.7-0.5-1.4-0.8-2.1c-0.5-1.4-1-2.8-1.5-4.2c-0.9-2.7-1.7-5.3-2.6-8c-0.3,0.1-0.7,0.2-1,0.3
	c-1.9,6.8-3.9,13.5-5.8,20.3c-1,3.5-2,6.9-3,10.4c0.1-0.1,0.3-0.2,0.5-0.3c0.5-0.3,1.3-0.8,2.3-1.2c0.9-0.5,2-1,3.2-1.5
	c0.6-0.2,1.2-0.5,1.8-0.7c0.6-0.2,1.2-0.5,1.9-0.7c0.6-0.2,1.3-0.4,1.9-0.6c0.6-0.2,1.2-0.4,1.8-0.5c1.2-0.3,2.3-0.6,3.2-0.8
	c0.8-0.2,1.5-0.3,2-0.3C255.2,166.5,254.7,165.2,254.2,163.9z M248.7,165.7c-1.4,0.3-2.7,0.9-4.1,1.6c-0.6,0.3-1.6,0.8-1.3-0.4
	c1.1-3.9,1.7-7.7,3.6-11.7c0.9,2.9,1.9,5.9,2.8,8.8C250.1,164.8,249.9,165.4,248.7,165.7z M254.2,163.9c-0.6-1.4-1.1-2.8-1.6-4.1
	c-0.3-0.7-0.5-1.4-0.8-2.1c-0.3-0.7-0.5-1.4-0.8-2.1c-0.5-1.4-1-2.8-1.5-4.2c-0.9-2.7-1.7-5.3-2.6-8c-0.3,0.1-0.7,0.2-1,0.3
	c-1.9,6.8-3.9,13.5-5.8,20.3c-1,3.5-2,6.9-3,10.4c0.1-0.1,0.3-0.2,0.5-0.3c0.5-0.3,1.3-0.8,2.3-1.2c0.9-0.5,2-1,3.2-1.5
	c0.6-0.2,1.2-0.5,1.8-0.7c0.6-0.2,1.2-0.5,1.9-0.7c0.6-0.2,1.3-0.4,1.9-0.6c0.6-0.2,1.2-0.4,1.8-0.5c1.2-0.3,2.3-0.6,3.2-0.8
	c0.8-0.2,1.5-0.3,2-0.3C255.2,166.5,254.7,165.2,254.2,163.9z M248.7,165.7c-1.4,0.3-2.7,0.9-4.1,1.6c-0.6,0.3-1.6,0.8-1.3-0.4
	c1.1-3.9,1.7-7.7,3.6-11.7c0.9,2.9,1.9,5.9,2.8,8.8C250.1,164.8,249.9,165.4,248.7,165.7z"/>
<path class="st0" d="M350.3,153.5c-1.3-0.9-1.6-2.4-2.1-3.8c-3.2-9.8-6.2-19.7-8.9-29.7c-0.8-3.1-2.1-6-1.8-9.5
	c0.1-1.2-0.6-1.4-1.6-1.1c-1.6,0.4-3.2,0.7-4.8,1.1c0,0,0,0,0,0c-1.7,0.4-3.3,0.8-5,1.2c-1.2,0.3-1.8,0.9-1.7,2.1
	c0.4,4.6-1,9.4-2.6,14.1c-3.8,11.5-5.2,23.1-10.4,34.6c-0.4,1-0.5,2,0.9,1.6c3.5-0.8,7-1.8,10.4-2.6c0.7-0.2,1.4-0.8,1-1.5
	c-0.9-1.7,0.4-3.6,0.6-5.4c0.1-1.4,0.9-2,2.2-2.3c2.8-0.7,5.5-1.1,8.3-2c1.5-0.5,2.6-0.1,3,1.5c0.3,1.5,0.8,2.9,0.4,4.6
	c-0.2,0.8,0,1.3,0.9,1.2c3.5-0.6,7.1-1.2,10.7-2.2C350.8,154.9,351.2,154.1,350.3,153.5z M343.8,152.5c-0.6-1.4-1.2-2.8-1.8-4.2
	c-0.6-1.4-1.1-2.7-1.7-4.1c-0.5,0.2-1.3,0.5-2.2,0.9c-0.9,0.3-2,0.7-3.2,1c-0.6,0.2-1.2,0.3-1.8,0.5c-0.6,0.2-1.2,0.3-1.9,0.5
	c-0.6,0.1-1.3,0.3-1.9,0.4c-0.6,0.1-1.2,0.2-1.8,0.3c-1.2,0.2-2.3,0.3-3.2,0.4c-0.9,0.1-1.7,0.1-2.3,0.1c-0.2,0-0.4,0-0.6,0
	c-1,3.4-2,6.7-3,10.1c-0.1,0-0.1,0-0.2,0c1.8-6.8,3.5-13.6,5.3-20.4c1.8-6.8,3.6-13.5,5.4-20.3c0.1-0.2,0.1-0.4,0.2-0.6
	c0.2-0.1,0.4-0.1,0.7-0.2c0.8-0.2,1.5-0.4,2.3-0.6c0.2-0.1,0.4-0.1,0.6-0.2c0.1,0.2,0.1,0.4,0.2,0.6c1.1,2.9,2.1,5.8,3.2,8.7
	c0.5,1.4,1,2.9,1.5,4.4c0.2,0.7,0.5,1.5,0.7,2.2c0.2,0.7,0.5,1.5,0.7,2.2c0.5,1.5,0.9,3,1.4,4.5c0.4,1.5,0.9,3,1.3,4.5
	c0.4,1.5,0.8,3,1.2,4.5c0.4,1.5,0.8,3,1.1,4.6C343.9,152.4,343.8,152.5,343.8,152.5z M324.3,146.9c0.9-0.4,2-0.7,3.2-1.1
	c0.6-0.2,1.2-0.4,1.8-0.5c0.6-0.2,1.2-0.3,1.9-0.5c0.6-0.1,1.3-0.3,1.9-0.4c0.6-0.1,1.2-0.2,1.8-0.3c1.2-0.2,2.3-0.3,3.2-0.4
	c0.8-0.1,1.5-0.1,2-0.1c-0.5-1.3-1-2.7-1.6-4c-0.6-1.4-1.1-2.9-1.6-4.3c-0.3-0.7-0.5-1.4-0.8-2.2c-0.3-0.7-0.5-1.5-0.8-2.2
	c-0.5-1.5-1-2.9-1.5-4.4c-0.9-2.8-1.7-5.5-2.6-8.3c-0.3,0.1-0.7,0.1-1,0.2c-1.9,6.5-3.9,13-5.8,19.6c-1,3.3-2,6.7-3,10
	c0.1-0.1,0.3-0.2,0.5-0.2C322.5,147.7,323.3,147.3,324.3,146.9z M327.7,141.3c1.1-3.7,1.7-7.5,3.6-11.3c0.9,3,1.9,6.1,2.8,9.1
	c0.3,1,0.1,1.5-1.1,1.6c-1.4,0.1-2.8,0.5-4.1,1.1C328.3,142.1,327.3,142.5,327.7,141.3z"/>
<path class="st0" d="M314,175.6c-1.8,0.6-3.3,0.5-4.4-0.6c-2.2-2.3-3.9-4.9-3.8-8.8c0.2-14.4,0.3-28.7,0.4-43.1c0-1.5-0.1-3,0.7-4.6
	c0.5-1.2,0.2-1.9-0.9-1.6c-3.6,0.9-7.1,2-10.7,3.1c-0.7,0.2-1.4,0.8-1,1.5c1.7,3.3,0.8,7.5,1.2,11.3c0.1,1.3-0.1,2.7-0.2,4.1
	c-0.1,0.9-0.5,1.6-1.5,1.9c-3.5,1-7,2.1-10.5,3.2c-0.8,0.3-1.5,0.2-1.5-0.7c0.1-5.2-0.7-10.2,0.8-15.7c0.3-1,0.5-1.9-0.8-1.7
	c-3.5,0.6-7.1,2.1-10.6,3.5c-0.9,0.3-1.6,1.2-0.9,1.9c1.1,1.2,0.9,3,0.9,4.7c0,6.3,0.1,12.7-0.1,19.1c-0.2,5.7-0.4,11.5,0,17.1
	c0.1,1.7,0.2,3.5-1.1,5.5c-0.9,1.3,0.2,1.4,1,1.1c3.5-1.6,7.1-2.4,10.7-3.7c1.1-0.4,1.4-1,0.9-1.8c-0.7-1.1-1.2-2.3-1.1-3.8
	c0.3-4.3,0.5-8.6-0.1-12.7c-0.2-1.6,0.6-2.5,2.3-3c3.1-0.9,6.2-1.9,9.4-2.9c1.6-0.5,2.2,0,2.2,1.6c-0.1,3,0,5.9,0,8.9c0,0,0,0-0.1,0
	c0,2.7-0.1,5.5,0,8.2c0.4,8,2.3,14.8,8.9,18.4c1.9,1,3.8,2,5.7,3.1c1.8,1.1,2.5,0.8,3.3-1.8c1-3.4,1.7-6.8,2.6-10.3
	C315.9,175.6,315.3,175.2,314,175.6z M309.7,182c-0.4-0.1-1.1-0.3-1.8-0.6c-0.7-0.3-1.6-0.8-2.5-1.5c-0.9-0.7-1.7-1.7-2.5-2.9
	c-0.8-1.2-1.4-2.6-1.9-4.2c-0.5-1.6-0.9-3.4-1.1-5.3c-0.1-1-0.2-1.9-0.2-3c0-1,0-2,0-3c0-2,0-4.1-0.1-6.1c0-2.1,0-4.1,0-6.2
	c0-2,0-4,0.1-6c0-0.4,0-0.7,0-1.1c-0.1,0.1-0.3,0.2-0.5,0.2c-0.6,0.3-1.5,0.7-2.6,1.2c-1.1,0.5-2.4,0.9-3.7,1.4
	c-0.7,0.2-1.4,0.5-2.1,0.7c-0.7,0.2-1.4,0.5-2.2,0.7c-0.7,0.2-1.5,0.4-2.2,0.6c-0.7,0.2-1.4,0.4-2.1,0.6c-1.4,0.3-2.6,0.6-3.7,0.8
	c-1.1,0.2-2,0.3-2.6,0.4c-0.2,0-0.4,0-0.5,0.1c0,0.3,0,0.7,0,1c0,1.3,0,2.6-0.1,3.9c0,1.3-0.1,2.6-0.1,3.8c0,1.2-0.1,2.4-0.2,3.6
	c-0.1,1.1-0.1,2.2-0.2,3.2c-0.1,2-0.3,3.7-0.4,4.9c-0.1,1.2-0.2,1.9-0.2,1.9s-0.1-0.6-0.2-1.7c-0.1-1.1-0.3-2.7-0.4-4.6
	c-0.1-1-0.1-2-0.2-3.1c0-1.1-0.1-2.3-0.1-3.5c0-1.2-0.1-2.5-0.1-3.8c0-1.3,0-2.6,0-3.9c0-1.3,0-2.6,0.1-3.9c0-1.3,0.1-2.6,0.1-3.8
	c0-1.2,0.1-2.4,0.2-3.6c0.1-1.1,0.1-2.2,0.2-3.2c0.1-2,0.3-3.7,0.4-4.9c0.1-1.2,0.2-1.9,0.2-1.9s0.1,0.6,0.2,1.7
	c0.1,1.1,0.3,2.7,0.4,4.6c0.1,1,0.1,2,0.2,3.1c0,1.1,0.1,2.3,0.1,3.5c0,1.2,0.1,2.5,0.1,3.8c0,0.9,0,1.7,0,2.6
	c0.1-0.1,0.3-0.2,0.5-0.3c0.6-0.3,1.5-0.8,2.6-1.2c1.1-0.5,2.4-1,3.7-1.5c0.7-0.3,1.4-0.5,2.1-0.7c0.7-0.2,1.4-0.5,2.2-0.7
	c0.7-0.2,1.5-0.4,2.2-0.6c0.7-0.2,1.4-0.4,2.1-0.5c1.4-0.3,2.6-0.6,3.7-0.8c1.1-0.2,2-0.3,2.6-0.4c0.2,0,0.4,0,0.5,0
	c0-1.5,0.1-2.9,0.1-4.3c0-1.8,0.1-3.5,0.2-5c0.1-1.6,0.1-3,0.2-4.3c0.1-1.3,0.1-2.4,0.2-3.3c0-0.9,0.1-1.6,0.1-2.1
	c0-0.5,0.1-0.8,0.1-0.8s0,0.3,0.1,0.7c0,0.5,0.1,1.2,0.2,2c0.1,0.9,0.1,2,0.2,3.2c0.1,1.2,0.2,2.6,0.2,4.2c0.1,1.5,0.2,3.2,0.2,4.9
	c0.1,1.8,0.1,3.6,0.2,5.5c0,1.9,0.1,3.9,0.1,5.9c0,2,0,4.1,0.1,6.1c0,2.1,0,4.1,0,6.2c0,0.5,0,1,0,1.5c0,0.3,0,0.5,0,0.8
	c0,0.1,0,0.1,0,0.2c0,0,0,0.1,0,0.1c0,0,0,0.1,0,0.1c0,0.1,0,0.2,0,0.4c0,1,0,1.9,0.1,2.8c0.1,1.8,0.4,3.6,0.8,5.2
	c0.4,1.6,0.9,3,1.5,4.2c0.6,1.2,1.3,2.2,2,3c0.7,0.8,1.5,1.4,2.1,1.8c0.7,0.4,1.2,0.7,1.6,0.9c0.4,0.2,0.6,0.3,0.6,0.3
	S310.1,182.1,309.7,182z"/>
<g>
	<path class="st0" d="M240.4,19.1v1.7l-6,1.3v-1.7l1.5-0.8v-9.3l-1.5-0.3V8.3l6-1.4v1.7l-1.5,0.9v9.3L240.4,19.1z"/>
	<path class="st0" d="M257.2,15.4v1.7l-5.7,1.2v-1.7l1.5-0.8V6.6l-1.5-0.3V4.8l4.7-1.1l5.3,7.8V4.8l-1.4-0.3V3l5.6-1.3v1.7l-1.5,0.9
		v11.3l-3.3,0.7l-5.2-7.6v6.6L257.2,15.4z"/>
</g>
</svg>
