<?xml version="1.0" encoding="utf-8"?>
<!-- Generator: Adobe Illustrator 19.1.0, SVG Export Plug-In . SVG Version: 6.00 Build 0)  -->
<svg version="1.1" id="Layer_1" xmlns="http://www.w3.org/2000/svg" xmlns:xlink="http://www.w3.org/1999/xlink" x="0px" y="0px"
	 viewBox="0 0 15.7 12.8" style="enable-background:new 0 0 15.7 12.8;" xml:space="preserve">
<style type="text/css">
	.st0{fill:#333333;}
</style>
<g>
	<g>
		<g>
			<path class="st0" d="M15.6,6.8c0-0.1,0-0.1,0.1-0.2C15.6,6.6,15.6,6.7,15.6,6.8C15.6,6.7,15.6,6.8,15.6,6.8z"/>
		</g>
	</g>
	<g>
		<g>
			<path class="st0" d="M15.6,6.8c0-0.1,0-0.1,0.1-0.2C15.6,6.6,15.6,6.7,15.6,6.8C15.6,6.7,15.6,6.8,15.6,6.8z"/>
		</g>
	</g>
	<g>
		<g>
			<path class="st0" d="M0.1,6.4c0-0.6,0.5-1.1,1.1-1.1h10.9L8.7,2c-0.4-0.4-0.4-1.1,0-1.5C9.1,0,9.7,0,10.1,0.5l5.2,5.2
				c0.2,0.2,0.3,0.4,0.3,0.6c0,0.1,0,0.1,0,0.2c0,0.1,0,0.1,0,0.2c0,0.1,0,0.1-0.1,0.2c0,0,0,0,0,0c0,0.1-0.1,0.2-0.2,0.3l-5.2,5.2
				c-0.4,0.4-1.1,0.4-1.5,0c-0.4-0.4-0.4-1.1,0-1.5l3.4-3.4H1.1C0.6,7.5,0.1,7,0.1,6.4z"/>
		</g>
	</g>
</g>
</svg>
