<?xml version="1.0" encoding="utf-8"?>
<!-- Generator: Adobe Illustrator 19.1.0, SVG Export Plug-In . SVG Version: 6.00 Build 0)  -->
<svg version="1.1" id="Layer_1" xmlns="http://www.w3.org/2000/svg" xmlns:xlink="http://www.w3.org/1999/xlink" x="0px" y="0px"
	 viewBox="0 0 17.4 17.4" style="enable-background:new 0 0 17.4 17.4;" xml:space="preserve">
<style type="text/css">
	.st0{fill:#333E48;}
	.st1{fill:#FFFFFF;}
</style>
<path class="st0" d="M17.4,16.7c0,0.4-0.3,0.7-0.7,0.7h-16c-0.4,0-0.7-0.3-0.7-0.7v-16C0,0.3,0.3,0,0.7,0h16c0.4,0,0.7,0.3,0.7,0.7
	V16.7z"/>
<g>
	<g>
		<path class="st1" d="M9.7,15.1H7.1V8.7H5.8V6.5h1.3V5.2c0-1.8,0.7-2.8,2.8-2.8h1.8v2.2h-1.1c-0.8,0-0.9,0.3-0.9,0.9l0,1.1h2
			l-0.2,2.2H9.7V15.1z"/>
	</g>
</g>
</svg>
